<svg id="Layer_1" data-name="Layer 1" xmlns="http://www.w3.org/2000/svg" viewBox="0 0 330.04 147.13"><defs><style>.cls-1{fill:#a38a66;}.cls-2{fill:#a28966;}</style></defs><path class="cls-1" d="M26.26,48.06h-8.7V37.36h8.7c5.16,0,7,2.34,7,5.35S31.42,48.06,26.26,48.06ZM21.5,45.43h4.76c2.12,0,3-.91,3-2.72s-.92-2.73-3-2.73H21.5Z"/><path class="cls-1" d="M47.57,46.33H40.49L39.3,48.06H35.07l7.34-10.7h3.24L53,48.06H48.75Zm-5.44-2.41h3.8L44,41.14Z"/><path class="cls-1" d="M66.11,37.36h5.16l-7,4.62,7.08,6.08H66.54l-5-4.29-1.46,1v3.32h-4V37.36h4v4Z"/><path class="cls-1" d="M73.37,42.71c0-3.13,2.88-5.65,9.19-5.65s9.19,2.52,9.19,5.65-2.88,5.64-9.19,5.64S73.37,45.83,73.37,42.71Zm14.4,0c0-1.52-1.12-3-5.21-3s-5.21,1.51-5.21,3,1.12,3,5.21,3S87.77,44.22,87.77,42.71Z"/><path class="cls-1" d="M109.55,37.36V40h-5.68v8.08H99.93V40H94.25V37.36Z"/><path class="cls-1" d="M122.41,46.33h-7.09l-1.18,1.73H109.9l7.34-10.7h3.25l7.33,10.7h-4.23ZM117,43.92h3.81l-1.91-2.78Z"/><path class="cls-1" d="M229.77,48.06h-8.71V37.36h8.71c5.15,0,7,2.34,7,5.35S234.92,48.06,229.77,48.06ZM225,45.43h4.77c2.11,0,3-.91,3-2.72s-.93-2.73-3-2.73H225Z"/><path class="cls-1" d="M251.75,43.12V37.36h3.94v5.76c0,3.32-2.18,5.23-7.61,5.23s-7.53-1.91-7.53-5.23V37.36h3.95v5.76c0,1.62.76,2.61,3.58,2.61S251.75,44.74,251.75,43.12Z"/><path class="cls-1" d="M260.38,37.36H265L271.67,44V37.36h3.94v10.7H271l-6.66-6.62v6.62h-3.95Z"/><path class="cls-1" d="M293.78,41.36v2.56h-9.5v1.51h10v2.63h-14V37.36h13.89V40h-10v1.38Z"/><path class="cls-1" d="M310,40.37a16.4,16.4,0,0,0-4.85-.69c-1.8,0-2.83.2-2.83.77s.85.73,3.17.94c5.08.45,7,1.34,7,3.46,0,2.56-3.15,3.5-7.6,3.5-4.88,0-6.95-1.24-6.95-1.24L299.77,45a14.66,14.66,0,0,0,4.92.78c2.45,0,3.81-.2,3.81-.88s-.66-.63-3.77-.9c-5.17-.45-6.38-1.77-6.38-3.5s1.84-3.39,6.62-3.39c4.63,0,6.88,1.15,6.88,1.15Z"/><path class="cls-1" d="M203.08,40.4a25.64,25.64,0,0,1-4.56-6.52c-1.06,0-5.85.11-7.36-.61A4.81,4.81,0,0,1,188.93,31a24.5,24.5,0,0,0-7.85-.67c-.84-.28-2-.39-1.73-2.39-1.62-1.06-6.69-3.79-8-4.35a20.67,20.67,0,0,1-6.85-1.28A6.55,6.55,0,0,1,161.46,19c-.66,0-3.67.22-3.67.22l-3.62-1.67a8.55,8.55,0,0,1-1.79,1.28,10.74,10.74,0,0,1-3.12.39V22.4l-.89,1.23.17,6.85-.45.95-.05.11-1.73-1L144,29.2s-.5-.16-.61-.5a13,13,0,0,1-.5-2.39A3.24,3.24,0,0,0,140.18,25,5,5,0,0,0,137.84,27c-.45.56-2.45,4.8-2.45,4.8a32.73,32.73,0,0,1-.17,4.45,6.68,6.68,0,0,0,.22,2.06c0,.45.73,2.4-.11,3.52-.72,1.55.5,4,.62,4.4s.05,3.56.22,4.84,1.78,9,1.67,9.25c.39.22,3.68,1.67,3.68,1.67L146,59.68s-.78-5.07.11-6a3,3,0,0,1,2.34,1s0,6.79-.33,7.52S147,65.86,147,65.86s5.13,2,5.18,2,1.17-1.17,1.62-1.28a3.24,3.24,0,0,1,2.06.11A11.8,11.8,0,0,1,164,64.42s.66-1.9.94-2a6,6,0,0,1,3.18.5,49,49,0,0,1,5.18-3.35,2.94,2.94,0,0,1,2.95.51c.95-.51,4.35-3.07,4.35-3.07a23.34,23.34,0,0,0,4.68-.17c.89-.89,2.4-2.17,3.73-2.06a21.11,21.11,0,0,0,3.68-.17,2.93,2.93,0,0,0,2.06-1.5c.67-.67,3.12-2.45,3.12-2.45s7.41-3.57,8.19-3.18c.78-.22,7.08-2.28,7.58-2.45-.72-.39-9.86-4.07-10.59-4.68m.95,5.74s-10,4.79-10.53,5a4.66,4.66,0,0,0-.78.39l-5.62-.16,1.56,2-4.18-.72-.5,1.06-4,.89,2.23,1.06-3.18,1.39a3.77,3.77,0,0,0-1.39-1.28,57.41,57.41,0,0,0-5.68-.89l2.56,2.78-8.08,1.95s-3.68-.22-4.46-.17c-1,.12-7.74,1.62-7.74,1.62h7.58c-1.17.38-9.42,3.9-11.2,2.45a25.13,25.13,0,0,1,0-3.79l7.3-3.06-6.08-2,3.9-.16-5.62-3.85L153.44,49,149.21,48l-5,2.68s-.17,6.24-.22,6.74c-.23.61-3.18,1.95-3.51,1.45a2.51,2.51,0,0,0,0-.89l1.84-.78-1.23-.45,1.29-.72-2.29-.28a21.33,21.33,0,0,1-.78-2.4c-.05-.5-.11-2.34-.11-2.34l4.12-.56-4.4-.55-.16-3.46,6.4-.89L139.63,44l3.5-.5-4.17-2s-.28-2-.39-2.95a26.35,26.35,0,0,1,0-4.29l1.57-4.07h0l.05-.11,0,.11,1-.05,3,1.5-.56,1.62,2.67,1.06-.5,1.11,3.57.11.83-2.23,11.76-2.22s-9.53,4.23-10.64,4.9c0,0-2.67,1.56-3,2.17a38.82,38.82,0,0,0,5.12-.33l-1.39-1,15.21-6.4a47,47,0,0,0-6.41-.45c-1.84.45-3.34.84-3.34.84l.89-1.06-7.07,0-1.12-3,7.58-.33-6.86-1.73a.91.91,0,0,1,.4-1.22,6.15,6.15,0,0,1,3.06-.5,19,19,0,0,0,2.39.05c.45-.22.56-.33.95-.33a17.9,17.9,0,0,1,4.29,1c2.12.61,4.29,1.28,4.29,1.28L162,26.3l10.47.5-6.52,2.85,7.75-1-2.51,1.9,7-.17L174.67,32l10.59.5L179,35.61l8.8-1.84,7,2.73-2.34.84L197,38,185.14,39.4l15,1.17-2.67,2,3.84.11-.94,1.23,6.07,1.89Z"/><path class="cls-1" d="M124.52,90.13H122a.76.76,0,0,1-.62-.26L117.19,85c-.33,0-.65,0-1,0h-3.72v4.73c0,.26-.18.4-.48.4h-2.07c-.29,0-.5-.14-.5-.4V73.91c0-.26.21-.41.5-.41h6.54c4.85,0,8.19,2,8.19,5.8,0,2.41-1.63,4.23-4.32,5.11l4.53,5.25C125.08,89.94,124.93,90.13,124.52,90.13Zm-3-10.83c0-2.41-2.18-3.64-5.2-3.64h-3.81v7.19h3.66C119.38,82.85,121.47,81.45,121.47,79.3Z"/><path class="cls-1" d="M143.06,88.36v1.37c0,.26-.17.4-.47.4H129.7c-.3,0-.51-.14-.51-.4V73.91c0-.26.21-.41.51-.41h12.83c.3,0,.5.15.5.41v1.37c0,.23-.2.4-.5.4H132.24v4.94h9c.33,0,.5.14.5.41V82.4c0,.26-.17.4-.5.4h-9V88h10.35C142.89,88,143.06,88.12,143.06,88.36Z"/><path class="cls-1" d="M145.9,88.74a.37.37,0,0,1-.11-.6l1-1.27a.49.49,0,0,1,.68-.12,11.66,11.66,0,0,0,5.71,1.44c2.39,0,4.08-.9,4.08-2.55s-1.3-2.39-4.67-3c-3.82-.78-6.27-2-6.27-4.71s2.93-4.59,7-4.59a12.44,12.44,0,0,1,6.24,1.37.35.35,0,0,1,.11.55l-.91,1.18a.55.55,0,0,1-.71.12,9.25,9.25,0,0,0-4.73-1.07c-2.34,0-4,.83-4,2.32s1.51,2,4.47,2.65c4,.85,6.48,2.1,6.48,5,0,3.1-3.08,4.89-7.13,4.89A15.08,15.08,0,0,1,145.9,88.74Z"/><path class="cls-1" d="M163,81.83c0-4.8,4.58-8.54,10.88-8.54s10.82,3.69,10.82,8.54-4.55,8.51-10.82,8.51S163,86.65,163,81.83Zm18.6,0c0-3.55-3.31-6.29-7.72-6.29s-7.78,2.76-7.78,6.29,3.34,6.27,7.78,6.27S181.63,85.47,181.63,81.83Z"/><path class="cls-1" d="M204,90.13h-2.55a.79.79,0,0,1-.62-.26L196.65,85c-.32,0-.65,0-1,0h-3.73v4.73c0,.26-.18.4-.47.4h-2.07c-.3,0-.5-.14-.5-.4V73.91c0-.26.2-.41.5-.41h6.53c4.85,0,8.2,2,8.2,5.8,0,2.41-1.63,4.23-4.32,5.11l4.52,5.25C204.55,89.94,204.4,90.13,204,90.13ZM200.94,79.3c0-2.41-2.19-3.64-5.2-3.64h-3.82v7.19h3.67C198.84,82.85,200.94,81.45,200.94,79.3Z"/><path class="cls-1" d="M223.09,73.91v1.37c0,.23-.17.4-.47.4h-6.51v14c0,.26-.2.4-.5.4h-2.07c-.33,0-.5-.14-.5-.4v-14h-6.6c-.29,0-.5-.17-.5-.4V73.91c0-.26.21-.41.5-.41h16.18C222.92,73.5,223.09,73.65,223.09,73.91Z"/><path class="cls-2" d="M41.86,118V107.77a.24.24,0,0,1,.26-.26H43.2a.23.23,0,0,1,.24.26V118a.23.23,0,0,1-.24.26H42.12A.24.24,0,0,1,41.86,118Z"/><path class="cls-2" d="M52.8,114.37V118a.24.24,0,0,1-.26.26h-1a.23.23,0,0,1-.25-.26v-3.43a1.92,1.92,0,1,0-3.82-.34l0,3.77a.23.23,0,0,1-.26.26h-1a.24.24,0,0,1-.26-.26v-6.52a.24.24,0,0,1,.26-.26h.64a.26.26,0,0,1,.28.24l0,1a2.82,2.82,0,0,1,2.58-1.39A3,3,0,0,1,52.8,114.37Z"/><path class="cls-2" d="M54.48,117.67c-.15-.07-.17-.2-.09-.35l.41-.72a.24.24,0,0,1,.36-.08,3.83,3.83,0,0,0,2.15.63c.79,0,1.26-.29,1.26-.82s-.37-.74-1.49-1c-1.37-.33-2.51-.87-2.51-2.12s1.11-2.09,2.76-2.09a4.94,4.94,0,0,1,2.5.63.23.23,0,0,1,.07.35l-.38.71a.22.22,0,0,1-.35.08,3.77,3.77,0,0,0-1.92-.51c-.66,0-1.13.23-1.13.75s.43.64,1.62.93c1.49.39,2.38.89,2.38,2.21s-1.11,2.16-2.9,2.16A5.16,5.16,0,0,1,54.48,117.67Z"/><path class="cls-2" d="M69.18,114.75a3.44,3.44,0,0,1-3.4,3.66,3.1,3.1,0,0,1-2.45-1.15V121a.24.24,0,0,1-.26.26h-1a.24.24,0,0,1-.26-.26v-9.5a.24.24,0,0,1,.26-.26h.79a.23.23,0,0,1,.26.24l0,.83a3.11,3.11,0,0,1,2.57-1.21A3.48,3.48,0,0,1,69.18,114.75Zm-1.53,0a2.19,2.19,0,0,0-2.17-2.27,2.27,2.27,0,0,0,0,4.53A2.18,2.18,0,0,0,67.65,114.75Z"/><path class="cls-2" d="M70.56,108.84a1,1,0,0,1,1.07-1,1,1,0,0,1,1.09,1,1.08,1.08,0,0,1-2.16,0Zm.32,9.17,0-6.52a.23.23,0,0,1,.24-.26h1a.23.23,0,0,1,.24.26V118a.23.23,0,0,1-.24.26h-1A.23.23,0,0,1,70.88,118Z"/><path class="cls-2" d="M78.87,111.4l-.09,1c0,.18-.12.24-.29.21a1.5,1.5,0,0,0-.4,0,1.93,1.93,0,0,0-2,2V118a.23.23,0,0,1-.26.26h-1a.24.24,0,0,1-.26-.26v-6.52a.24.24,0,0,1,.26-.26h.79a.23.23,0,0,1,.26.24l0,1.13a2.41,2.41,0,0,1,2.39-1.51h.33A.25.25,0,0,1,78.87,111.4Z"/><path class="cls-2" d="M79.86,108.84a1,1,0,0,1,1.07-1,1,1,0,0,1,1.08,1,1.08,1.08,0,0,1-2.15,0Zm.32,9.17v-6.52a.23.23,0,0,1,.25-.26h1a.23.23,0,0,1,.25.26V118a.23.23,0,0,1-.25.26h-1A.23.23,0,0,1,80.18,118Z"/><path class="cls-2" d="M90.76,114.37V118a.24.24,0,0,1-.26.26h-1a.23.23,0,0,1-.24-.26v-3.43a1.92,1.92,0,1,0-3.83-.34l0,3.77a.23.23,0,0,1-.26.26h-1a.24.24,0,0,1-.26-.26v-6.52a.24.24,0,0,1,.26-.26h.65a.25.25,0,0,1,.27.24l0,1a2.82,2.82,0,0,1,2.58-1.39A3,3,0,0,1,90.76,114.37Z"/><path class="cls-2" d="M99.67,111.5v6.36c0,2-1.33,3.53-3.78,3.53a5.41,5.41,0,0,1-3-.76.24.24,0,0,1-.08-.35l.42-.68a.22.22,0,0,1,.35-.09,4.71,4.71,0,0,0,2.24.57,2.1,2.1,0,0,0,2.35-2v-.74a3.07,3.07,0,0,1-2.42,1.11,3.67,3.67,0,0,1,0-7.32,3.18,3.18,0,0,1,2.6,1.21l0-.8a.26.26,0,0,1,.26-.26h.78A.24.24,0,0,1,99.67,111.5Zm-1.42,3.25A2.19,2.19,0,1,0,96,117,2.16,2.16,0,0,0,98.25,114.75Z"/><path class="cls-2" d="M101.58,117.37a1,1,0,0,1,1-1,1,1,0,0,1,0,2.08A1,1,0,0,1,101.58,117.37Z"/><path class="cls-2" d="M118.75,118.27h-1.14a.32.32,0,0,1-.3-.2l-.84-2.07h-5.18l-.84,2.07a.34.34,0,0,1-.31.2H109c-.18,0-.27-.12-.2-.29l4.41-10.27a.31.31,0,0,1,.31-.2h.72a.29.29,0,0,1,.3.2L119,118C119,118.15,118.93,118.27,118.75,118.27Zm-6.92-3.63h4.09l-2-4.93Z"/><path class="cls-2" d="M126.74,111.49V118a.23.23,0,0,1-.26.26h-.75a.24.24,0,0,1-.26-.25l0-.82a2.68,2.68,0,0,1-2.32,1.21,3,3,0,0,1-3.13-3.28v-3.64a.23.23,0,0,1,.24-.26h1a.23.23,0,0,1,.24.26v3.33c0,1.29.72,2.12,1.81,2.12a1.9,1.9,0,0,0,1.91-2v-3.47a.23.23,0,0,1,.26-.26h1A.23.23,0,0,1,126.74,111.49Z"/><path class="cls-2" d="M129.47,115.82V112.5h-1.18a.25.25,0,0,1-.26-.26v-.75a.24.24,0,0,1,.26-.26h1.21v-2.16a.24.24,0,0,1,.26-.26h1a.24.24,0,0,1,.27.26v2.16h2.54a.23.23,0,0,1,.24.26v.75a.24.24,0,0,1-.24.26H131v3.23c0,.93.53,1.31,1.4,1.31a2,2,0,0,0,1.08-.32.23.23,0,0,1,.35.11l.32.69a.26.26,0,0,1-.11.35,3.2,3.2,0,0,1-1.94.54A2.41,2.41,0,0,1,129.47,115.82Z"/><path class="cls-2" d="M142.25,114.37V118a.24.24,0,0,1-.26.26h-1a.23.23,0,0,1-.25-.26v-3.43a1.9,1.9,0,0,0-1.88-2.11,1.94,1.94,0,0,0-2,2V118a.23.23,0,0,1-.26.26h-1a.24.24,0,0,1-.26-.26V107.6a.24.24,0,0,1,.26-.26h1a.24.24,0,0,1,.27.26v4.51a2.74,2.74,0,0,1,2.26-1A3,3,0,0,1,142.25,114.37Z"/><path class="cls-2" d="M150.83,114.93c0,.17-.11.26-.26.26h-5.22a2.34,2.34,0,0,0,2.45,1.93,3.06,3.06,0,0,0,1.79-.58c.14-.11.26-.09.34.06l.39.66a.26.26,0,0,1-.06.37,4.22,4.22,0,0,1-2.63.78,3.63,3.63,0,0,1-3.8-3.66,3.53,3.53,0,0,1,3.62-3.66,3.33,3.33,0,0,1,3.38,3.6Zm-5.47-.83h4v0a1.85,1.85,0,0,0-1.88-1.74A2.1,2.1,0,0,0,145.36,114.1Z"/><path class="cls-2" d="M159.37,114.37V118a.24.24,0,0,1-.26.26h-1a.23.23,0,0,1-.25-.26v-3.43a1.92,1.92,0,1,0-3.82-.34l0,3.77a.23.23,0,0,1-.26.26h-1a.24.24,0,0,1-.26-.26v-6.52a.24.24,0,0,1,.26-.26h.64a.26.26,0,0,1,.28.24l0,1a2.85,2.85,0,0,1,2.59-1.39A3,3,0,0,1,159.37,114.37Z"/><path class="cls-2" d="M161.87,115.82V112.5h-1.18a.25.25,0,0,1-.26-.26v-.75a.24.24,0,0,1,.26-.26h1.21v-2.16a.24.24,0,0,1,.26-.26h1a.23.23,0,0,1,.26.26v2.16h2.54a.23.23,0,0,1,.24.26v.75a.24.24,0,0,1-.24.26h-2.54v3.23c0,.93.53,1.31,1.41,1.31a2,2,0,0,0,1.07-.32.23.23,0,0,1,.35.11l.32.69a.26.26,0,0,1-.11.35,3.17,3.17,0,0,1-1.94.54A2.41,2.41,0,0,1,161.87,115.82Z"/><path class="cls-2" d="M167.45,108.84a1,1,0,0,1,1.07-1,1,1,0,0,1,1.08,1,1.08,1.08,0,0,1-2.15,0Zm.32,9.17v-6.52a.23.23,0,0,1,.25-.26h1a.23.23,0,0,1,.25.26V118a.23.23,0,0,1-.25.26h-1A.23.23,0,0,1,167.77,118Z"/><path class="cls-2" d="M171,114.76a3.69,3.69,0,0,1,3.83-3.67,4.08,4.08,0,0,1,2.28.61.26.26,0,0,1,.07.38l-.4.69a.23.23,0,0,1-.35.08,2.74,2.74,0,0,0-1.44-.37,2.26,2.26,0,0,0-2.43,2.28,2.23,2.23,0,0,0,2.37,2.25,2.93,2.93,0,0,0,1.5-.35c.16-.09.26-.06.32.06l.42.74a.25.25,0,0,1-.09.35,4,4,0,0,1-2.25.6A3.63,3.63,0,0,1,171,114.76Z"/><path class="cls-2" d="M178.61,117.37a1,1,0,1,1,2.07,0,1,1,0,1,1-2.07,0Z"/><path class="cls-2" d="M186.57,113.78v-6a.23.23,0,0,1,.26-.26h1.09a.23.23,0,0,1,.26.26v6.14a3,3,0,1,0,6,0v-6.14a.24.24,0,0,1,.26-.26h1.06a.24.24,0,0,1,.26.26v6c0,3-1.82,4.63-4.56,4.63A4.26,4.26,0,0,1,186.57,113.78Z"/><path class="cls-2" d="M204.85,114.37V118a.24.24,0,0,1-.26.26h-1a.23.23,0,0,1-.25-.26v-3.43a1.92,1.92,0,1,0-3.83-.34V118a.23.23,0,0,1-.26.26h-1A.24.24,0,0,1,198,118v-6.52a.24.24,0,0,1,.26-.26h.64a.27.27,0,0,1,.28.24l0,1a2.84,2.84,0,0,1,2.59-1.39A3,3,0,0,1,204.85,114.37Z"/><path class="cls-2" d="M207.38,118V112.5h-1.09a.25.25,0,0,1-.26-.26v-.75a.24.24,0,0,1,.26-.26h1.09v-1a2.69,2.69,0,0,1,2.82-3,2.93,2.93,0,0,1,1.57.42.23.23,0,0,1,.08.34l-.37.72a.25.25,0,0,1-.35.11,1.58,1.58,0,0,0-.78-.19c-.8,0-1.45.46-1.45,1.63v1h1.94a.23.23,0,0,1,.25.26v.75a.24.24,0,0,1-.25.26H208.9V118a.24.24,0,0,1-.26.26h-1A.23.23,0,0,1,207.38,118Z"/><path class="cls-2" d="M211.84,114.76a3.74,3.74,0,1,1,3.75,3.65A3.66,3.66,0,0,1,211.84,114.76Zm5.94,0a2.2,2.2,0,1,0-2.19,2.25A2.22,2.22,0,0,0,217.78,114.76Z"/><path class="cls-2" d="M225.31,111.4l-.09,1c0,.18-.12.24-.29.21a1.56,1.56,0,0,0-.4,0,1.92,1.92,0,0,0-2,2V118a.24.24,0,0,1-.26.26h-1A.24.24,0,0,1,221,118v-6.52a.24.24,0,0,1,.26-.26h.8a.24.24,0,0,1,.26.24l.05,1.13a2.41,2.41,0,0,1,2.39-1.51h.33A.25.25,0,0,1,225.31,111.4Z"/><path class="cls-2" d="M233.18,111.5v6.36c0,2-1.33,3.53-3.78,3.53a5.43,5.43,0,0,1-3-.76.24.24,0,0,1-.07-.35l.41-.68a.22.22,0,0,1,.35-.09,4.75,4.75,0,0,0,2.24.57,2.11,2.11,0,0,0,2.36-2v-.74a3.1,3.1,0,0,1-2.42,1.11,3.67,3.67,0,0,1,0-7.32,3.22,3.22,0,0,1,2.61,1.21l0-.8a.25.25,0,0,1,.26-.26h.78A.24.24,0,0,1,233.18,111.5Zm-1.42,3.25a2.19,2.19,0,1,0-2.21,2.26A2.16,2.16,0,0,0,231.76,114.75Z"/><path class="cls-2" d="M241.88,114.93c0,.17-.11.26-.26.26H236.4a2.34,2.34,0,0,0,2.45,1.93,3.06,3.06,0,0,0,1.79-.58c.14-.11.26-.09.34.06l.4.66a.27.27,0,0,1-.07.37,4.22,4.22,0,0,1-2.63.78,3.63,3.63,0,0,1-3.8-3.66,3.53,3.53,0,0,1,3.62-3.66,3.33,3.33,0,0,1,3.38,3.6Zm-5.47-.83h4v0a1.86,1.86,0,0,0-1.89-1.74A2.1,2.1,0,0,0,236.41,114.1Z"/><path class="cls-2" d="M244,115.82V112.5h-1.18a.25.25,0,0,1-.26-.26v-.75a.24.24,0,0,1,.26-.26h1.21v-2.16a.24.24,0,0,1,.26-.26h1a.24.24,0,0,1,.26.26v2.16h2.54a.23.23,0,0,1,.24.26v.75a.24.24,0,0,1-.24.26h-2.54v3.23c0,.93.53,1.31,1.4,1.31a2,2,0,0,0,1.08-.32.23.23,0,0,1,.35.11l.32.69a.26.26,0,0,1-.11.35,3.17,3.17,0,0,1-1.94.54A2.41,2.41,0,0,1,244,115.82Z"/><path class="cls-2" d="M250.53,115.82V112.5h-1.18a.25.25,0,0,1-.26-.26v-.75a.24.24,0,0,1,.26-.26h1.21v-2.16a.24.24,0,0,1,.26-.26h1a.23.23,0,0,1,.26.26v2.16h2.54a.23.23,0,0,1,.25.26v.75a.24.24,0,0,1-.25.26h-2.54v3.23c0,.93.53,1.31,1.41,1.31a2,2,0,0,0,1.07-.32.23.23,0,0,1,.35.11l.32.69a.26.26,0,0,1-.1.35,3.25,3.25,0,0,1-1.95.54A2.41,2.41,0,0,1,250.53,115.82Z"/><path class="cls-2" d="M263.24,111.49V118a.23.23,0,0,1-.26.26h-.84a.24.24,0,0,1-.25-.25l0-.87a3.09,3.09,0,0,1-2.57,1.26,3.67,3.67,0,0,1,0-7.32,3.23,3.23,0,0,1,2.51,1.07l.05-.69a.24.24,0,0,1,.26-.24H263A.23.23,0,0,1,263.24,111.49Zm-1.45,3.26a2.19,2.19,0,1,0-2.21,2.26A2.16,2.16,0,0,0,261.79,114.75Z"/><path class="cls-2" d="M272.72,114.75a3.48,3.48,0,0,1-3.43,3.66,3.15,3.15,0,0,1-2.6-1.24l-.05.85a.23.23,0,0,1-.26.25h-.76a.24.24,0,0,1-.26-.26V107.6a.24.24,0,0,1,.26-.26h1a.24.24,0,0,1,.26.26v4.62a3.1,3.1,0,0,1,2.47-1.13A3.44,3.44,0,0,1,272.72,114.75Zm-1.53,0a2.19,2.19,0,0,0-2.17-2.27,2.27,2.27,0,0,0,0,4.53A2.18,2.18,0,0,0,271.19,114.75Z"/><path class="cls-2" d="M274.44,118V107.6a.24.24,0,0,1,.26-.26h1a.23.23,0,0,1,.26.26V118a.23.23,0,0,1-.26.26h-1A.24.24,0,0,1,274.44,118Z"/><path class="cls-2" d="M284.68,114.93c0,.17-.11.26-.26.26H279.2a2.34,2.34,0,0,0,2.45,1.93,3.06,3.06,0,0,0,1.79-.58c.14-.11.26-.09.34.06l.39.66a.26.26,0,0,1-.06.37,4.22,4.22,0,0,1-2.63.78,3.63,3.63,0,0,1-3.8-3.66,3.53,3.53,0,0,1,3.62-3.66,3.33,3.33,0,0,1,3.38,3.6Zm-5.47-.83h4v0a1.86,1.86,0,0,0-1.89-1.74A2.1,2.1,0,0,0,279.21,114.1Z"/><path class="cls-2" d="M286.11,117.37a1,1,0,0,1,1-1,1,1,0,1,1-1,1Z"/></svg>