<?xml version="1.0" encoding="UTF-8" standalone="no"?>
<svg width="130px" height="68px" viewBox="0 0 130 68" version="1.1" xmlns="http://www.w3.org/2000/svg" xmlns:xlink="http://www.w3.org/1999/xlink">
    <!-- Generator: Sketch 45.2 (43514) - http://www.bohemiancoding.com/sketch -->
    <title>White</title>
    <desc>Created with Sketch.</desc>
    <defs></defs>
    <g id="Page-1" stroke="none" stroke-width="1" fill="none" fill-rule="evenodd">
        <g id="18-Internal-Page" transform="translate(-51.000000, -1216.000000)" fill="#FEFEFE">
            <g id="Footer" transform="translate(0.000000, 1200.000000)">
                <g id="Logo:-Bisha" transform="translate(51.000000, 16.000000)">
                    <g id="White">
                        <g id="Group-34" transform="translate(0.000000, 0.100694)">
                            <path d="M6.72186378,64.8956875 C7.32372992,65.1794897 9.05527323,65.4983552 10.4714465,65.4983552 C12.8795094,65.4983552 15.1458953,63.4414631 15.1458953,60.1071611 C15.1458953,56.5248694 12.7378323,54.9293432 9.5154622,54.9293432 L6.72186378,54.9293432 L6.72186378,64.8956875 Z M6.72186378,53.5103319 L10.2593047,53.5103319 C11.7462417,53.5103319 13.4107614,51.5241656 13.4107614,49.0062072 C13.4107614,46.2038472 11.675478,44.9273364 9.12618661,44.9273364 L6.72186378,44.9273364 L6.72186378,53.5103319 Z M10.5423598,66.9527294 L0.0999897638,66.9527294 L0.0999897638,66.7399526 L2.50790315,64.824662 L2.50790315,45.6010296 L0.0999897638,43.6858888 L0.0999897638,43.4729622 L9.83427323,43.4729622 C14.1543047,43.4729622 17.305911,44.9982121 17.305911,48.4736659 C17.305911,50.8855356 15.1104386,52.8364889 13.1628638,53.5812076 C16.5623677,53.9710985 19.4306197,56.0641027 19.4306197,59.6105821 C19.4306197,64.4698342 15.2521157,66.9527294 10.5423598,66.9527294 L10.5423598,66.9527294 Z" id="Fill-28"></path>
                            <polygon id="Fill-29" points="31.2550228 66.7398927 33.6630858 64.8247519 33.6630858 45.6009697 31.2550228 43.6859787 31.2550228 43.4730521 40.2849598 43.4730521 40.2849598 43.6859787 37.8768969 45.6009697 37.8768969 64.8247519 40.2849598 66.7398927 40.2849598 66.9526695 31.2550228 66.9526695"></polygon>
                            <polygon id="Fill-30" points="93.2970843 54.2198226 93.2970843 45.6010146 90.8893205 43.6858738 90.8893205 43.4729472 99.9194071 43.4729472 99.9194071 43.6858738 97.5113441 45.6010146 97.5113441 64.824647 99.9194071 66.7399377 99.9194071 66.9527144 90.8893205 66.9527144 90.8893205 66.7399377 93.2970843 64.824647 93.2970843 55.8511611 83.7047772 55.8511611 83.7047772 64.824647 86.1128402 66.7399377 86.1128402 66.9527144 77.0474465 66.9527144 77.0474465 66.7399377 79.4553598 64.824647 79.4553598 45.6010146 77.0474465 43.6858738 77.0474465 43.4729472 86.1128402 43.4729472 86.1128402 43.6858738 83.7047772 45.6010146 83.7047772 54.2198226"></polygon>
                            <path d="M119.786166,56.7026279 L116.846851,49.7509709 L114.155733,56.7026279 L119.786166,56.7026279 Z M113.589024,66.9526245 L107.073371,66.9526245 L107.073371,66.7398477 L109.127166,64.8247069 L117.62615,43.0831162 L118.369544,43.0831162 L127.576615,64.8247069 L129.63056,66.7398477 L129.63056,66.9526245 L120.7423,66.9526245 L120.7423,66.7398477 L123.18567,64.8247069 L120.423489,58.2278777 L113.589024,58.2278777 L111.074741,64.7536815 L113.589024,66.7398477 L113.589024,66.9526245 Z" id="Fill-31"></path>
                            <path d="M67.6992071,13.1777451 C68.4177661,13.7335121 68.880648,14.6046981 68.880648,15.5843703 C68.880648,17.2627595 67.5222228,18.6233321 65.8464827,18.6233321 C64.1707425,18.6233321 62.8123173,17.2627595 62.8123173,15.5843703 C62.8123173,14.72682 63.1670339,13.9522826 63.7374827,13.3998122 L60.3794197,0.057659509 L60.3773252,0.0491184695 L60.3752307,0.057659509 L57.0168685,13.4016103 C57.5861205,13.9540807 57.940089,14.727719 57.940089,15.5843703 C57.940089,17.2627595 56.5815142,18.6233321 54.9059236,18.6233321 C53.2301835,18.6233321 51.8717583,17.2627595 51.8717583,15.5843703 C51.8717583,14.6040987 52.3352386,13.7324632 53.0543961,13.1766962 L46.1155063,5.48331741 L51.9715457,25.4708484 C54.5359472,24.2637148 57.3780181,23.4601078 60.3773252,23.4601078 C63.3766323,23.4601078 66.2187031,24.2637148 68.7831047,25.4708484 L74.6392937,5.48331741 L67.6992071,13.1777451 Z" id="Fill-32"></path>
                            <path d="M65.8450614,47.9777612 L65.6324709,47.9777612 C64.2514551,46.1328966 62.7286126,44.6434592 60.710274,44.6434592 C59.0460535,44.6434592 57.6648882,45.7077926 57.6648882,47.5160955 C57.6648882,49.7860641 59.1168173,50.8503975 61.8433921,52.8365638 C65.2074394,55.2834967 67.4738252,57.1992369 67.4738252,60.6038151 C67.4738252,64.3990335 64.5702661,67.3074822 59.8605102,67.3074822 C56.8860378,67.3074822 54.7610299,66.5269511 53.5924551,65.9242834 C53.4156205,64.6828358 53.2031795,61.4194095 53.3092504,59.2914919 L53.5924551,59.2914919 C54.7255732,62.129065 56.3191795,65.6045188 59.8605102,65.6045188 C61.9850693,65.6045188 63.5079118,64.0442058 63.5079118,61.9162882 C63.5079118,59.5400811 62.2329669,58.2277578 59.3291087,56.2768046 C55.7882268,53.8298717 53.9820299,51.8080428 53.9820299,48.864381 C53.9820299,45.2110638 56.9919591,43.0831462 61.0998488,43.0831462 C63.5433685,43.0831462 65.2782031,43.5439128 65.8450614,43.721027 L65.8450614,47.9777612 Z" id="Fill-33"></path>
                        </g>
                    </g>
                </g>
            </g>
        </g>
    </g>
</svg>