<?xml version="1.0" encoding="UTF-8"?>
<svg xmlns="http://www.w3.org/2000/svg" width="153" height="51" viewBox="0 0 153 51" fill="none">
  <g clip-path="url(#clip0_1168_4016)">
    <path d="M61.0583 25.9611C64.2458 26.9541 72.3208 27.3797 79.1208 26.3157C85.85 25.3227 92.2959 25.5355 97.4667 27.3797C94.9875 27.2378 87.6917 26.8832 83.5833 27.7344C78.8375 28.7983 67.5042 29.4367 61.0583 25.9611Z" fill="#D8DFE1"></path>
    <path d="M69.2041 28.8693C71.8958 29.9332 76.7833 32.0612 84.3624 31.3519C91.9416 30.6426 100.229 29.153 104.975 30.3588C99.5916 28.6565 96.0499 27.6634 90.8791 28.5146C85.0708 29.4367 80.1124 30.7844 69.2041 28.8693Z" fill="#D8DFE1"></path>
    <path d="M22.2417 32.6996C26.8459 32.6996 28.1917 34.7566 29.1126 38.3741H29.7501V34.331C29.7501 34.2601 29.8209 34.1182 29.9626 34.1182C31.5209 34.1182 33.5751 34.1182 35.2043 34.1182C35.2751 34.1182 35.4167 34.1892 35.3459 34.331C35.3459 34.8275 35.2751 35.9625 35.2043 36.388C34.5667 40.644 32.1584 45.1836 27.4834 46.6732C22.1709 48.3046 16.2209 45.822 14.0251 40.573C13.3167 38.9416 13.1042 35.6078 13.1042 34.2601C13.1042 34.1892 13.1751 34.0473 13.3167 34.0473H15.7959C15.8667 34.0473 16.0084 34.1182 16.0084 34.2601C16.0084 36.6008 16.0792 37.5939 16.7876 38.7288H16.8584C17.0001 35.9624 18.9126 32.6996 22.2417 32.6996ZM26.6334 38.9416C26.1376 35.3241 23.9417 34.9694 22.4542 35.1113C21.1084 35.3241 20.1167 36.1752 19.6917 37.452C19.1251 39.0125 19.4084 40.5021 20.4001 41.7789C21.3209 43.0556 22.8792 43.6231 24.2959 43.1975C25.7126 42.701 26.9167 41.2114 26.6334 38.9416Z" fill="#005640"></path>
    <path d="M0 1.48957V50.9291H11.9V33.9764L24.225 21.6342H11.9V10.8526C11.9 10.0014 11.2625 9.36301 10.4125 9.36301H7.65V6.80946C7.65 5.95828 7.0125 5.31989 6.1625 5.31989H4.17917V2.90821C4.17917 2.05703 3.54167 1.41864 2.69167 1.41864H0V1.48957Z" fill="#005640"></path>
    <path d="M48.3791 1.48957V50.9291H36.4791V33.9764L24.1541 21.6342H36.4791V10.8526C36.4791 10.0014 37.1166 9.36301 37.9666 9.36301H40.7291V6.80946C40.7291 5.95828 41.3666 5.31989 42.2166 5.31989H44.1999V2.90821C44.1999 2.05703 44.8374 1.41864 45.6874 1.41864H48.3791V1.48957Z" fill="#005640"></path>
    <path d="M34.4249 13.9026C34.4249 15.8178 32.9374 17.3783 31.0249 17.3783C29.1124 17.3783 27.6249 15.8178 27.6249 13.9736C27.6249 15.8887 26.0666 17.3783 24.2249 17.3783C22.3124 17.3783 20.8249 15.8178 20.8249 13.9736C20.8249 15.8887 19.2666 17.3783 17.4249 17.3783C15.5124 17.3783 14.0249 15.8178 14.0249 13.9736C14.0249 13.9736 14.0249 13.9736 14.0249 13.9026H13.4583V19.79H34.9916V13.9026H34.4249Z" fill="#D8DFE1"></path>
    <path d="M54.4707 37.452C54.4707 37.0264 54.3999 36.7427 54.1874 36.6718C53.9749 36.6008 53.6916 36.5299 53.4082 36.5299V36.1752C53.6916 36.1752 54.0457 36.2462 54.3291 36.2462C54.6124 36.2462 54.9666 36.3171 55.2499 36.3171C55.6041 36.3171 55.8874 36.3171 56.2416 36.2462C56.5249 36.2462 56.8791 36.1752 57.0916 36.1752V36.5299C56.9499 36.5299 56.8791 36.5299 56.7374 36.5299C56.5957 36.5299 56.4541 36.6008 56.3832 36.6718C56.2416 36.7427 56.1707 36.8136 56.0999 36.9555C56.0291 37.0974 55.9582 37.2392 55.9582 37.452V42.701H64.1041V37.452C64.1041 37.2392 64.0332 37.0974 63.9624 36.9555C63.8916 36.8136 63.8207 36.7427 63.6791 36.6718C63.5374 36.6008 63.3957 36.5299 63.3249 36.5299C63.1832 36.5299 63.0416 36.5299 62.9707 36.5299V36.1752C63.2541 36.1752 63.5374 36.2462 63.8207 36.2462C64.1749 36.2462 64.4582 36.3171 64.8124 36.3171C65.0957 36.3171 65.3791 36.3171 65.7332 36.2462C66.0166 36.2462 66.3707 36.1752 66.6541 36.1752V36.5299C66.2999 36.5299 66.0166 36.6008 65.8749 36.6718C65.6624 36.7427 65.5916 37.0264 65.5916 37.452V49.5104C65.5916 49.7942 65.7332 50.0779 65.9457 50.2198C66.1582 50.3616 66.4416 50.4325 66.7249 50.4325V50.7872C66.3707 50.7872 66.0874 50.7163 65.7332 50.7163C65.4499 50.7163 65.0957 50.6453 64.7416 50.6453C64.3874 50.6453 64.1041 50.6453 63.8207 50.7163C63.5374 50.7163 63.2541 50.7872 62.9707 50.7872V50.3616C63.2541 50.3616 63.5374 50.2907 63.7499 50.2198C63.9624 50.1488 64.1041 49.8651 64.1041 49.4395V43.5522H55.8874V49.4395C55.8874 49.8651 56.0291 50.1488 56.2416 50.2198C56.4541 50.2907 56.7374 50.3616 57.0207 50.3616V50.7163C56.8082 50.7163 56.5249 50.6453 56.2416 50.6453C55.9582 50.6453 55.6749 50.5744 55.3916 50.5744C55.0374 50.5744 54.6832 50.5744 54.3291 50.6453C53.9749 50.6453 53.6207 50.7163 53.3374 50.7163V50.3616C53.6207 50.3616 53.9041 50.2907 54.1166 50.1488C54.3291 50.007 54.4707 49.7942 54.4707 49.4395V37.452Z" fill="#2D2A26"></path>
    <path d="M67.575 43.1975C67.575 42.2044 67.7874 41.2114 68.1416 40.3602C68.4958 39.4381 68.9916 38.7288 69.6291 38.0195C70.2666 37.3811 70.975 36.8136 71.825 36.459C72.675 36.1043 73.525 35.8915 74.375 35.8915C75.65 35.8915 76.7124 36.1043 77.7041 36.6008C78.6249 37.0974 79.475 37.7357 80.0416 38.4451C80.6791 39.2253 81.175 40.0765 81.4583 40.9986C81.7416 41.9207 81.9541 42.8428 81.9541 43.7649C81.9541 44.758 81.7416 45.751 81.3875 46.6022C81.0333 47.4534 80.5375 48.2337 79.9 48.872C79.2625 49.5104 78.5541 50.0069 77.7041 50.3616C76.8541 50.7163 76.0041 50.9291 75.0833 50.9291C73.95 50.9291 72.9583 50.7163 72.0374 50.2907C71.1166 49.8651 70.3375 49.2976 69.7 48.5883C69.0625 47.879 68.5666 47.0278 68.2125 46.1057C67.7166 45.1836 67.575 44.1905 67.575 43.1975ZM68.9916 43.2684C68.9916 44.1196 69.1333 44.8999 69.4166 45.751C69.7 46.5313 70.1249 47.2406 70.6208 47.879C71.1166 48.5174 71.7541 49.0139 72.4625 49.4395C73.1708 49.7942 73.9499 50.0069 74.8708 50.0069C75.5791 50.0069 76.2874 49.8651 76.925 49.5814C77.5625 49.2976 78.2 48.872 78.6958 48.3046C79.1916 47.7371 79.6166 47.0987 79.9 46.3185C80.1833 45.5382 80.3958 44.6871 80.3958 43.7649C80.3958 42.9138 80.2541 42.0626 79.9708 41.2823C79.6875 40.5021 79.3333 39.7218 78.7666 39.0834C78.2708 38.4451 77.6333 37.9485 76.925 37.5229C76.2166 37.0974 75.4374 36.9555 74.5166 36.9555C73.6666 36.9555 72.8875 37.0974 72.1791 37.3811C71.4708 37.6648 70.9041 38.0904 70.4083 38.6579C69.9125 39.2253 69.5583 39.8637 69.275 40.6439C69.1333 41.4242 68.9916 42.2754 68.9916 43.2684Z" fill="#2D2A26"></path>
    <path d="M85.7083 50.3616C85.85 50.3616 85.9916 50.3616 86.1333 50.3616C86.275 50.3616 86.4166 50.2907 86.4875 50.2197C86.6291 50.1488 86.7 50.007 86.7708 49.8651C86.8416 49.7232 86.9125 49.4395 86.9125 49.1558V37.1683H86.0625C85.4958 37.1683 85.0708 37.1683 84.7166 37.2392C84.3625 37.3101 84.0791 37.452 83.9375 37.5939C83.725 37.7357 83.5833 38.0195 83.4417 38.3032C83.3 38.5869 83.1583 39.0125 83.0875 39.4381L82.875 40.2184H82.3792C82.45 39.7218 82.45 39.0834 82.45 38.516C82.45 37.8776 82.45 37.3101 82.45 36.7427V36.2462H92.7916V36.7427C92.7916 37.3101 92.7916 37.8776 92.7916 38.516C92.7916 39.1544 92.8625 39.7218 92.8625 40.2184H92.3666L92.1542 39.4381C92.0125 38.9416 91.9417 38.5869 91.8 38.3032C91.6583 38.0195 91.5166 37.7357 91.3041 37.5939C91.0916 37.452 90.8083 37.3101 90.525 37.2392C90.1708 37.1683 89.7458 37.1683 89.25 37.1683H88.4V49.0848C88.4 49.3686 88.4 49.5814 88.4708 49.7942C88.5417 49.936 88.6125 50.0779 88.7542 50.1488C88.8958 50.2197 88.9667 50.2907 89.1083 50.2907C89.25 50.2907 89.3916 50.2907 89.6041 50.2907V50.6453C89.3208 50.6453 89.0375 50.5744 88.7542 50.5744C88.4708 50.5744 88.1875 50.5035 87.975 50.5035C87.6208 50.5035 87.2666 50.5035 86.9125 50.5744C86.5583 50.5744 86.1333 50.6453 85.7791 50.6453V50.3616H85.7083Z" fill="#2D2A26"></path>
    <path d="M94.9874 37.5939C94.9874 37.1683 94.8457 36.9555 94.5624 36.8136C94.2791 36.6718 93.9957 36.6718 93.7832 36.6718V36.3171H104.267C104.267 36.8136 104.267 37.3102 104.337 37.8067C104.408 38.3032 104.408 38.7997 104.479 39.2962H104.125C103.983 39.0125 103.912 38.6579 103.842 38.4451C103.771 38.1613 103.7 37.9485 103.558 37.7357C103.417 37.5229 103.275 37.3811 103.062 37.3102C102.85 37.2392 102.496 37.1683 102.071 37.1683H96.4749V42.63H100.229C100.725 42.63 101.008 42.4882 101.15 42.2754C101.292 42.0626 101.433 41.637 101.504 41.1405H101.929C101.929 41.4951 101.858 41.8498 101.858 42.2045C101.858 42.5591 101.787 42.9138 101.787 43.2684C101.787 43.5522 101.787 43.8359 101.858 44.1196C101.858 44.4033 101.929 44.6871 101.929 44.9708H101.362C101.362 44.4743 101.292 44.0487 101.15 43.8359C101.008 43.6231 100.654 43.4812 100.158 43.4812H96.4749V49.6523H102.283C102.708 49.6523 103.062 49.5814 103.346 49.4395C103.629 49.2976 103.842 49.1558 104.054 48.943C104.196 48.7302 104.337 48.4465 104.479 48.1627C104.55 47.879 104.621 47.5243 104.692 47.0987H105.187C105.117 47.3115 105.117 47.5243 105.046 47.879C104.975 48.1627 104.975 48.5174 104.904 48.872C104.904 49.2267 104.833 49.5104 104.833 49.8651C104.833 50.1488 104.833 50.4325 104.833 50.6453H93.7124V50.2907C94.0666 50.2907 94.3499 50.2197 94.6332 50.1488C94.8457 50.0779 94.9874 49.7942 94.9874 49.2976V37.5939Z" fill="#2D2A26"></path>
    <path d="M106.746 37.452C106.746 37.0264 106.675 36.7427 106.463 36.6718C106.25 36.6008 105.967 36.5299 105.683 36.5299V36.1752C105.967 36.1752 106.108 36.2462 106.25 36.2462C106.321 36.2462 106.392 36.2462 106.533 36.2462C106.604 36.2462 106.746 36.2462 106.817 36.2462C106.958 36.2462 107.171 36.2462 107.596 36.2462C108.021 36.2462 108.375 36.2462 108.729 36.1752C109.083 36.1043 109.296 36.1043 109.579 36.1043V36.459C109.438 36.459 109.296 36.459 109.154 36.459C109.013 36.459 108.871 36.5299 108.8 36.5299C108.658 36.6008 108.588 36.6718 108.517 36.7427C108.446 36.8136 108.375 36.9555 108.375 37.0974V49.5814H113.333C113.829 49.5814 114.254 49.5104 114.538 49.2976C114.821 49.0848 115.033 48.872 115.175 48.5883C115.317 48.3046 115.458 47.9499 115.529 47.5953C115.6 47.2406 115.671 46.8859 115.742 46.5313H116.167C116.096 47.2406 116.025 47.879 115.954 48.5174C115.883 49.1558 115.883 49.8651 115.883 50.5035H105.825V50.1488C106.108 50.1488 106.392 50.0779 106.604 49.936C106.817 49.7942 106.958 49.5814 106.958 49.2267V37.452H106.746Z" fill="#2D2A26"></path>
    <path d="M119.921 46.2476C120.062 47.5243 120.487 48.5174 121.054 49.1558C121.692 49.7942 122.683 50.0779 124.029 50.0779C124.596 50.0779 125.092 50.007 125.587 49.8651C126.083 49.7232 126.508 49.5104 126.933 49.2267C127.358 48.943 127.642 48.5883 127.854 48.1627C128.067 47.7371 128.208 47.2406 128.208 46.6022C128.208 46.0348 128.067 45.5382 127.854 45.1836C127.642 44.8289 127.287 44.6161 126.933 44.4033C126.579 44.1905 126.083 44.1196 125.587 43.9777C125.092 43.9068 124.596 43.7649 124.029 43.694C123.25 43.5521 122.612 43.3394 121.975 43.1975C121.408 42.9847 120.912 42.7719 120.487 42.4172C120.062 42.1335 119.779 41.7789 119.567 41.3533C119.354 40.9277 119.212 40.4311 119.212 39.8637C119.212 39.1544 119.354 38.5869 119.708 38.0904C120.062 37.5939 120.487 37.1683 120.983 36.8136C121.479 36.459 122.117 36.2462 122.754 36.1043C123.392 35.9624 124.029 35.8915 124.667 35.8915C125.375 35.8915 126.012 35.9624 126.65 36.0334C127.287 36.1043 127.996 36.2462 128.633 36.459C128.633 37.0264 128.633 37.5939 128.633 38.0904C128.633 38.6579 128.704 39.1544 128.775 39.7218H128.208C128.067 38.6579 127.712 37.9485 127.217 37.452C126.65 37.0264 125.8 36.8136 124.596 36.8136C124.1 36.8136 123.675 36.8846 123.179 36.9555C122.683 37.0264 122.258 37.2392 121.833 37.452C121.408 37.6648 121.125 38.0195 120.842 38.3741C120.558 38.7288 120.487 39.1544 120.487 39.7218C120.487 40.1474 120.558 40.5021 120.771 40.7858C120.983 41.0695 121.267 41.3533 121.55 41.4951C121.904 41.7079 122.329 41.8498 122.825 41.9917C123.321 42.1335 123.817 42.2044 124.454 42.3463C125.092 42.4882 125.729 42.63 126.367 42.7719C127.004 42.9138 127.5 43.1266 127.996 43.4103C128.492 43.694 128.846 44.0487 129.129 44.5452C129.412 44.9708 129.554 45.6092 129.554 46.2476C129.554 47.0278 129.412 47.6662 129.129 48.3046C128.846 48.872 128.421 49.3686 127.854 49.7942C127.358 50.2197 126.721 50.5035 126.012 50.7163C125.304 50.9291 124.525 51 123.675 51C123.321 51 122.967 51 122.612 50.9291C122.258 50.8581 121.833 50.8581 121.479 50.7163C121.125 50.6453 120.7 50.5035 120.346 50.4325C119.992 50.2907 119.637 50.1488 119.354 49.936C119.354 49.7232 119.354 49.4395 119.354 49.0848C119.354 48.7302 119.354 48.4465 119.354 48.0918C119.354 47.7371 119.354 47.3825 119.283 47.0987C119.283 46.7441 119.212 46.5313 119.212 46.3185H119.921V46.2476Z" fill="#2D2A26"></path>
    <path d="M133.167 49.1558C133.167 49.4395 133.167 49.6523 133.238 49.8651C133.308 50.0779 133.379 50.1488 133.521 50.2198C133.663 50.2907 133.733 50.3616 133.875 50.3616C134.017 50.3616 134.158 50.3616 134.371 50.3616V50.7163C134.088 50.7163 133.804 50.6453 133.521 50.6453C133.238 50.6453 132.954 50.5744 132.742 50.5744C132.388 50.5744 132.033 50.5744 131.679 50.6453C131.325 50.6453 130.9 50.7163 130.546 50.7163V50.3616C130.688 50.3616 130.829 50.3616 130.971 50.3616C131.113 50.3616 131.254 50.2907 131.325 50.2198C131.467 50.1488 131.538 50.007 131.608 49.8651C131.679 49.7232 131.75 49.4395 131.75 49.1558V37.8776C131.75 37.5939 131.679 37.3811 131.608 37.2392C131.538 37.0974 131.467 36.9555 131.325 36.8846C131.183 36.8136 131.042 36.7427 130.9 36.7427C130.758 36.7427 130.617 36.7427 130.475 36.7427V36.388H136C136.85 36.388 137.558 36.5299 138.196 36.7427C138.833 36.9555 139.329 37.3102 139.754 37.6648C140.179 38.0904 140.463 38.516 140.746 39.0125C140.958 39.509 141.1 40.0765 141.1 40.6439C141.1 41.3533 140.958 41.9917 140.746 42.5591C140.533 43.1266 140.179 43.6231 139.754 43.9777C139.329 44.3324 138.904 44.6871 138.338 44.8999C137.771 45.1127 137.204 45.1836 136.567 45.1836C136.142 45.1836 135.788 45.1127 135.433 45.0417C135.079 44.9708 134.725 44.8999 134.442 44.758C134.158 44.6161 133.946 44.5452 133.804 44.4033C133.663 44.2615 133.521 44.1905 133.521 44.1196C133.521 43.9777 133.592 43.9068 133.663 43.9068C133.733 43.9068 134.017 43.9777 134.3 44.0487C134.654 44.1196 135.079 44.1905 135.575 44.1905C136.071 44.1905 136.567 44.1196 137.063 43.9068C137.558 43.765 137.983 43.4812 138.338 43.1975C138.692 42.9138 138.975 42.5591 139.188 42.1335C139.4 41.7079 139.471 41.2114 139.471 40.7149C139.471 40.0056 139.329 39.3672 139.046 38.9416C138.763 38.4451 138.408 38.0904 137.983 37.8067C137.558 37.5229 137.063 37.3102 136.496 37.2392C135.929 37.0974 135.363 37.0974 134.796 37.0974H133.167V49.1558Z" fill="#2D2A26"></path>
    <path d="M138.692 50.3616C139.117 50.2907 139.471 50.0779 139.754 49.6523C140.037 49.2267 140.321 48.7302 140.533 48.0918L143.65 40.0056C144.217 38.516 144.5 37.523 144.5 37.0974C144.5 36.7427 144.146 36.5299 143.508 36.5299V36.1752C143.721 36.1752 144.004 36.2462 144.217 36.2462C144.5 36.2462 144.783 36.3171 145.067 36.3171C145.279 36.3171 145.562 36.3171 145.775 36.2462C145.987 36.1752 146.2 36.1752 146.412 36.1752C146.483 36.5299 146.696 36.9555 146.837 37.452C147.05 37.9485 147.192 38.3741 147.333 38.7997L150.025 45.6092L151.442 49.1558C151.654 49.6523 151.867 50.007 152.15 50.1488C152.433 50.2907 152.646 50.4325 152.787 50.4325V50.7872C152.504 50.7872 152.221 50.7163 151.937 50.7163C151.654 50.7163 151.371 50.6453 151.087 50.6453C150.733 50.6453 150.379 50.6453 150.096 50.7163C149.742 50.7163 149.458 50.7872 149.104 50.7872V50.3616C149.387 50.2907 149.6 50.2198 149.812 50.0779C150.025 50.007 150.096 49.7232 150.096 49.4395C150.096 49.2267 150.025 48.943 149.883 48.5883C149.742 48.1627 149.6 47.7371 149.387 47.3115C149.175 46.886 149.033 46.3894 148.892 46.0348C148.75 45.6092 148.608 45.3255 148.537 45.1127H142.729C142.658 45.3964 142.517 45.6801 142.304 46.1057C142.162 46.5313 141.95 46.9569 141.808 47.3825C141.667 47.8081 141.525 48.2337 141.454 48.6593C141.383 49.0139 141.312 49.2976 141.312 49.5104C141.312 49.8651 141.454 50.0779 141.667 50.2198C141.879 50.3616 142.092 50.4325 142.304 50.4325V50.7872C142.092 50.7872 141.808 50.7163 141.596 50.7163C141.383 50.7163 141.1 50.6453 140.887 50.6453C140.533 50.6453 140.179 50.6453 139.825 50.7163C139.471 50.7163 139.117 50.7872 138.762 50.7872V50.3616H138.692ZM148.112 44.1905L145.562 37.523L143.083 44.1905H148.112Z" fill="#2D2A26"></path>
    <path d="M115.671 44.0487L113.192 40.9986C112.837 40.9986 112.554 41.1405 112.412 41.3533C112.2 41.637 112.129 41.9207 112.129 42.2754C112.129 42.5591 112.2 42.8428 112.271 43.0556C112.412 43.3394 112.554 43.5522 112.696 43.7649C112.908 43.9777 113.192 44.1905 113.404 44.3324C113.687 44.4743 113.971 44.5452 114.254 44.5452C114.537 44.5452 114.75 44.4743 115.033 44.4033C115.317 44.3324 115.458 44.1905 115.671 44.0487ZM115.812 44.1905C116.025 44.4033 115.387 44.6161 115.033 44.758C114.679 44.8999 114.325 44.9708 113.971 44.9708C113.262 44.9708 112.696 44.758 112.271 44.3324C111.846 43.9068 111.633 43.3394 111.633 42.63C111.633 42.1335 111.775 41.7789 111.987 41.4242C112.2 41.1405 112.554 40.9277 112.979 40.7858C112.837 40.573 112.767 40.4312 112.696 40.2893C112.625 40.1474 112.625 39.9346 112.625 39.7928C112.625 39.509 112.767 39.2253 112.979 38.9416C113.192 38.6579 113.475 38.516 113.758 38.516C113.971 38.516 114.183 38.5869 114.396 38.6579H114.467C114.537 38.6579 114.608 38.5869 114.608 38.4451H114.821L115.246 39.6509H115.033C114.892 39.2253 114.608 39.0125 114.325 38.8707C114.042 38.7288 113.829 38.7288 113.687 38.7288C113.475 38.7288 113.333 38.7997 113.192 38.9416C113.05 39.0834 112.979 39.2253 112.979 39.4381C112.979 39.7928 113.121 40.2184 113.475 40.6439L116.025 43.4812C116.308 43.0556 116.379 42.8428 116.45 42.5591C116.521 42.3463 116.521 42.1335 116.521 41.9917C116.521 41.7079 116.45 41.5661 116.237 41.5661H115.812V41.3533H117.796V41.5661H117.371C117.087 41.5661 116.875 41.9207 116.733 42.5591C116.662 42.9138 116.521 43.2684 116.167 43.694C116.308 43.9068 116.662 44.1196 116.875 44.2615C117.087 44.4033 117.442 44.4743 117.654 44.3324C117.796 44.2615 117.937 44.1196 118.008 43.9068H118.221C118.221 43.9068 118.15 44.0487 118.079 44.2615C117.867 44.758 117.371 44.9708 116.875 44.8999C116.592 44.758 116.237 44.6161 115.812 44.1905Z" fill="white"></path>
    <path d="M59.075 28.8693C59.075 29.5077 59.1458 30.0042 59.2875 30.3588C59.4292 30.7135 59.6417 30.9972 59.8542 31.21C60.0667 31.4228 60.35 31.5647 60.7042 31.5647C60.9875 31.6356 61.3417 31.6356 61.6958 31.6356V32.4159C61.0583 32.3449 60.4208 32.274 59.7833 32.2031C59.1458 32.1321 58.5792 32.1321 58.0125 32.1321C57.2333 32.1321 56.4542 32.1321 55.675 32.2031C54.825 32.274 54.0458 32.3449 53.125 32.4159V31.6356C53.4083 31.6356 53.6917 31.6356 54.0458 31.5647C54.3292 31.4937 54.6125 31.4228 54.8958 31.21C55.1083 30.9972 55.3208 30.7844 55.5333 30.3588C55.675 30.0042 55.8167 29.5077 55.8167 28.7983V4.18498C55.8167 3.61752 55.7458 3.121 55.6042 2.76634C55.4625 2.41168 55.25 2.12796 54.9667 1.91516C54.6833 1.70236 54.4 1.5605 54.1167 1.5605C53.8333 1.48957 53.4792 1.48957 53.1958 1.48957V0.780251H65.3792C67.2208 0.780251 68.7792 1.06398 70.125 1.5605C71.4708 2.05702 72.6042 2.76634 73.525 3.61752C74.4458 4.46871 75.1542 5.46175 75.65 6.59666C76.1458 7.73157 76.3583 8.93741 76.3583 10.2142C76.3583 11.7747 76.075 13.1933 75.5792 14.3992C75.0833 15.6759 74.375 16.7399 73.4542 17.5911C72.5333 18.4423 71.5417 19.0807 70.3375 19.5772C69.1333 20.0737 67.8583 20.2865 66.5125 20.2865C65.6625 20.2865 64.8125 20.2156 64.0333 20.0737C63.2542 19.9319 62.5458 19.7191 61.9083 19.4353C61.2708 19.2225 60.8458 18.9388 60.4208 18.726C60.0667 18.5132 59.8542 18.2295 59.8542 18.0876C59.8542 17.8039 59.925 17.662 60.1375 17.662C60.35 17.662 60.8458 17.8039 61.5542 18.0167C62.2625 18.2295 63.2542 18.3713 64.3875 18.3713C65.5208 18.3713 66.6542 18.1586 67.6458 17.8039C68.7083 17.4492 69.6292 16.9527 70.4083 16.3143C71.1875 15.6759 71.825 14.8957 72.3208 13.9736C72.8167 13.0515 73.0292 12.0584 73.0292 10.9235C73.0292 9.363 72.7458 8.0153 72.1792 7.02225C71.6125 6.02921 70.8333 5.17803 69.8417 4.53964C68.85 3.90125 67.7875 3.47566 66.5125 3.26287C65.3083 3.05007 64.0333 2.90821 62.7583 2.90821H58.9333V28.8693H59.075Z" fill="#2D2A26"></path>
    <path d="M80.1833 11.9166C80.1833 10.6398 80.4667 9.29207 80.9625 7.94437C81.4584 6.59666 82.2375 5.39082 83.1584 4.32684C84.15 3.26287 85.2834 2.34075 86.7 1.70237C88.1167 0.993048 89.675 0.70932 91.4459 0.70932C93.1459 0.70932 94.7042 1.06398 96.1209 1.70237C97.5375 2.34075 98.7417 3.26287 99.8042 4.39778C100.867 5.53269 101.646 6.80946 102.213 8.29903C102.779 9.7886 103.063 11.3491 103.063 12.9096C103.063 14.3282 102.85 15.7469 102.354 17.1655C101.858 18.5841 101.15 19.79 100.158 20.9249C99.1667 22.0598 98.0334 22.911 96.6167 23.6203C95.2 24.3296 93.5709 24.6843 91.7292 24.6843C89.8167 24.6843 88.1167 24.3296 86.7 23.6912C85.2834 22.9819 84.0792 22.1307 83.0875 20.9249C82.0959 19.79 81.3875 18.4423 80.8917 16.9527C80.4667 15.2503 80.1833 13.6189 80.1833 11.9166ZM83.0875 11.9875C83.0875 13.4061 83.3 14.7538 83.725 16.0306C84.15 17.3074 84.7167 18.5132 85.5667 19.5063C86.3459 20.4993 87.3375 21.2796 88.4709 21.9179C89.6042 22.4854 90.8792 22.8401 92.2959 22.8401C93.3584 22.8401 94.35 22.6273 95.3417 22.2726C96.3334 21.9179 97.1834 21.3505 97.8917 20.5702C98.6 19.79 99.1667 18.8679 99.6625 17.733C100.088 16.5981 100.3 15.2503 100.3 13.6189C100.3 12.2712 100.088 10.9235 99.7334 9.5758C99.3792 8.2281 98.7417 7.02225 98.0334 5.95828C97.2542 4.8943 96.3334 4.04312 95.2709 3.3338C94.2084 2.69541 93.0042 2.34075 91.5875 2.34075C90.3834 2.34075 89.25 2.55355 88.2584 2.97914C87.1959 3.40473 86.3459 4.04312 85.5667 4.8943C84.8584 5.74548 84.2209 6.73853 83.7959 7.94437C83.3 9.15021 83.0875 10.4979 83.0875 11.9875Z" fill="#2D2A26"></path>
    <path d="M108.163 22.5563C108.517 25.3936 109.296 27.5216 110.713 28.8693C112.058 30.217 114.183 30.9263 117.158 30.9263C118.363 30.9263 119.496 30.7844 120.558 30.5007C121.692 30.217 122.613 29.7204 123.463 29.153C124.313 28.5146 125.021 27.7344 125.517 26.8122C126.013 25.8901 126.296 24.7552 126.296 23.4075C126.296 22.0598 126.013 21.0668 125.517 20.3574C125.021 19.6481 124.313 19.0807 123.463 18.6551C122.613 18.2295 121.692 17.9458 120.558 17.733C119.425 17.5202 118.363 17.3074 117.158 17.0946C115.458 16.7399 113.971 16.3853 112.696 15.9597C111.421 15.5341 110.288 14.9666 109.438 14.3282C108.517 13.6898 107.879 12.9096 107.383 11.9875C106.888 11.0654 106.675 10.0014 106.675 8.72462C106.675 7.23505 107.029 5.88734 107.738 4.82337C108.446 3.75939 109.367 2.83727 110.5 2.12796C111.633 1.41864 112.908 0.851182 114.325 0.496523C115.742 0.141864 117.158 0 118.575 0C120.063 0 121.55 0.141864 122.967 0.354659C124.383 0.567455 125.871 0.851182 127.358 1.20584C127.358 2.41168 127.358 3.61752 127.429 4.82337C127.5 6.02921 127.571 7.16412 127.713 8.29903H126.508C126.225 6.02921 125.446 4.39777 124.313 3.40473C123.108 2.48261 121.267 1.98609 118.646 1.98609C117.654 1.98609 116.592 2.12796 115.529 2.34075C114.467 2.55355 113.546 2.90821 112.625 3.47566C111.775 3.97218 111.067 4.61057 110.5 5.46175C109.933 6.242 109.721 7.23505 109.721 8.36996C109.721 9.29207 109.933 10.1433 110.358 10.7816C110.783 11.42 111.35 11.9875 112.129 12.4131C112.908 12.8387 113.829 13.1933 114.892 13.4771C115.954 13.7608 117.158 13.9736 118.433 14.1864C119.85 14.4701 121.267 14.7538 122.613 15.1085C123.958 15.4631 125.163 15.9597 126.154 16.5981C127.217 17.2364 127.996 18.0167 128.633 19.0097C129.271 20.0028 129.554 21.2796 129.554 22.7691C129.554 24.4715 129.2 25.8901 128.563 27.1669C127.925 28.4437 127.004 29.5077 125.871 30.3588C124.738 31.21 123.392 31.8484 121.833 32.3449C120.275 32.7705 118.575 32.9833 116.733 32.9833C116.025 32.9833 115.246 32.9124 114.396 32.8414C113.546 32.7705 112.767 32.6287 111.917 32.4159C111.067 32.2031 110.288 31.9903 109.508 31.7065C108.729 31.4228 108.021 31.0682 107.383 30.7135C107.383 30.217 107.383 29.5786 107.313 28.8693C107.313 28.1599 107.242 27.3797 107.242 26.5994C107.242 25.8192 107.171 25.1099 107.171 24.3296C107.1 23.6203 107.1 22.9819 107.029 22.5563H108.163Z" fill="#2D2A26"></path>
    <path d="M136.992 31.7065C137.275 31.7065 137.629 31.7065 137.913 31.6356C138.196 31.5647 138.479 31.4937 138.762 31.2809C139.046 31.0681 139.188 30.8554 139.4 30.4298C139.542 30.0751 139.683 29.5786 139.683 28.8693V2.55354H137.771C136.567 2.55354 135.575 2.62448 134.867 2.76634C134.087 2.9082 133.521 3.19193 133.096 3.54659C132.671 3.90125 132.317 4.39777 132.033 5.10709C131.75 5.74548 131.467 6.59666 131.183 7.66064L130.758 9.363H129.625C129.696 8.22809 129.767 6.95132 129.838 5.60361C129.908 4.25591 129.908 2.97913 129.908 1.70236V0.567451H152.646V1.63143C152.646 2.83727 152.646 4.18498 152.717 5.53268C152.788 6.88039 152.858 8.15716 152.929 9.29207H151.867L151.442 7.5897C151.158 6.52573 150.875 5.74548 150.592 5.03616C150.308 4.39777 149.954 3.83032 149.529 3.47566C149.104 3.121 148.467 2.83727 147.758 2.69541C147.05 2.55354 146.058 2.48261 144.854 2.48261H142.942V28.7983C142.942 29.4367 143.013 29.9332 143.154 30.2879C143.296 30.6426 143.508 30.9263 143.721 31.1391C144.004 31.3519 144.217 31.4937 144.571 31.4937C144.854 31.5647 145.208 31.5647 145.563 31.5647V32.3449C144.925 32.274 144.288 32.2031 143.65 32.1321C143.013 32.0612 142.446 32.0612 141.879 32.0612C141.1 32.0612 140.321 32.0612 139.471 32.1321C138.621 32.2031 137.771 32.274 136.921 32.3449V31.7065H136.992Z" fill="#2D2A26"></path>
  </g>
  <defs>
    <clipPath id="clip0_1168_4016">
      <rect width="153" height="51" fill="white"></rect>
    </clipPath>
  </defs>
</svg>
