<?xml version="1.0" encoding="utf-8"?>
<!-- Generator: Adobe Illustrator 15.0.0, SVG Export Plug-In . SVG Version: 6.00 Build 0)  -->
<!DOCTYPE svg PUBLIC "-//W3C//DTD SVG 1.1//EN" "http://www.w3.org/Graphics/SVG/1.1/DTD/svg11.dtd">
<svg version="1.1" id="Calque_1" xmlns="http://www.w3.org/2000/svg" xmlns:xlink="http://www.w3.org/1999/xlink" x="0px" y="0px"
	 width="156px" height="54px" viewBox="0 0 156 54" enable-background="new 0 0 156 54" xml:space="preserve">
<g>
	<g>
		<path fill="#FFFFFF" d="M82.982,8.148c-1.359-0.001-3.607-0.277-3.725-0.287v0.21c0.561,0.28,0.961,0.735,1.201,1.366
			c0.238,0.63,0.389,1.346,0.448,2.146c0.041,0.84,0.071,1.785,0.092,2.837c0.021,1.05,0.028,0.635,0.028,3.116
			c0,2.479-0.007,2.063-0.028,3.114c-0.021,1.051-0.051,1.997-0.092,2.836c-0.06,0.801-0.21,1.516-0.448,2.147
			c-0.24,0.629-0.641,1.085-1.201,1.363v0.212c0.117-0.009,2.365-0.286,3.725-0.286c0.653-0.001,1.346,0.041,1.955,0.093
			c0.941,0.082,1.684,0.187,1.771,0.193v-0.212c-0.562-0.278-0.96-0.734-1.2-1.363c-0.24-0.632-0.391-1.347-0.451-2.147
			c-0.04-0.839-0.071-1.785-0.09-2.836c-0.019-0.901-0.026-0.213-0.029-2.115v-2.001c0.003-1.901,0.011-1.213,0.029-2.114
			c0.019-1.052,0.05-1.997,0.09-2.837c0.061-0.8,0.211-1.516,0.451-2.146c0.24-0.631,0.639-1.086,1.2-1.366v-0.21
			c-0.087,0.008-0.829,0.112-1.771,0.192C84.328,8.106,83.636,8.149,82.982,8.148"/>
		<path fill="#FFFFFF" d="M81.331,29.474c-0.115,0.017-0.69,0.229-1.348,0.241c-1.313,0.021-2.727-0.558-3.85-1.532
			c-1.313-1.135-6.462-8.687-7.927-10.647c0.495-0.616,5.03-6.307,6.195-7.677c1.166-1.37,1.704-1.507,2.265-1.786V7.861
			c-0.043,0.004-0.249,0.032-0.563,0.068c-0.313,0.038-0.735,0.084-1.208,0.124c-0.609,0.052-1.302,0.096-1.956,0.095
			c-0.212,0-0.448-0.009-0.693-0.02c-1.318-0.063-2.932-0.259-3.031-0.268v0.211c0.561,0.345,1.084,0.717,1.003,1.367
			c-0.083,0.665-4.001,5.424-4.88,6.408c-0.86,0.86-1.89,0.714-2.564,0.687c0.002-1.9,0.011-1.213,0.029-2.114
			c0.021-1.052,0.05-1.997,0.091-2.837c0.061-0.801,0.209-1.516,0.45-2.146c0.24-0.63,0.641-1.085,1.2-1.364V7.861
			c-0.143,0.012-2.062,0.288-3.725,0.287c-1.362-0.001-3.608-0.278-3.724-0.287v0.211c0.56,0.279,0.959,0.734,1.2,1.364
			c0.24,0.631,0.39,1.346,0.45,2.146c0.04,0.84,0.071,1.785,0.09,2.837c0.02,1.05,0.029,0.634,0.029,3.115
			c0,2.479-0.009,2.064-0.029,3.115c-0.019,1.051-0.05,1.996-0.09,2.836c-0.061,0.801-0.21,1.516-0.45,2.147
			c-0.241,0.63-0.641,1.085-1.2,1.363v0.212c0.116-0.01,2.362-0.286,3.724-0.286c1.663-0.003,3.582,0.274,3.725,0.286v-0.212
			c-0.559-0.278-0.96-0.733-1.2-1.363c-0.241-0.632-0.39-1.347-0.45-2.147c-0.041-0.84-0.07-1.785-0.091-2.836
			c-0.018-0.901-0.027-0.213-0.029-2.115c0.674-0.026,1.306-0.007,1.958,0.687c1.277,1.358,5.811,7.954,6.476,8.797
			c0.961,1.219,1.747,1.817,3.092,2.331c0.666,0.255,1.52,0.324,2.339,0.324c2.2,0,4.834-0.557,4.963-0.959
			C81.663,29.527,81.532,29.446,81.331,29.474"/>
		<path fill="#FFFFFF" d="M109.272,8.148c-1.361-0.001-3.609-0.277-3.726-0.287v0.21c0.561,0.28,0.96,0.735,1.2,1.366
			c0.239,0.63,0.391,1.346,0.45,2.146c0.041,0.84,0.069,1.785,0.09,2.837c0.021,1.05,0.031,0.635,0.031,3.116
			c0,2.479-0.01,2.063-0.031,3.114c-0.018,0.965-0.046,1.839-0.08,2.625L97.354,7.861c-0.086,0.008-0.827,0.112-1.769,0.192
			c-0.608,0.053-1.302,0.096-1.954,0.095c-1.362-0.001-3.608-0.277-3.726-0.287v0.21c0.56,0.28,0.96,0.735,1.2,1.366
			c0.239,0.63,0.391,1.346,0.45,2.146c0.04,0.84,0.069,1.785,0.091,2.837c0.02,1.05,0.028,0.635,0.028,3.116
			c0,2.479-0.009,2.063-0.028,3.114c-0.021,1.051-0.051,1.997-0.091,2.836c-0.06,0.801-0.211,1.516-0.45,2.147
			c-0.24,0.629-0.641,1.085-1.2,1.363v0.212c0.117-0.009,2.363-0.286,3.726-0.286c0.652-0.001,1.346,0.041,1.954,0.093
			c0.941,0.082,1.683,0.187,1.769,0.193v-0.212c-0.559-0.278-0.959-0.734-1.199-1.363c-0.239-0.632-0.39-1.347-0.451-2.147
			c-0.039-0.839-0.07-1.785-0.09-2.836c-0.016-0.901-0.026-0.213-0.028-2.115v-2.001c0.002-1.901,0.013-1.213,0.028-2.114
			c0.018-0.932,0.043-1.775,0.077-2.54l9.856,15.329c0.116-0.009,2.364-0.286,3.726-0.286c0.653-0.001,1.345,0.041,1.955,0.093
			c0.94,0.082,1.682,0.187,1.769,0.193v-0.212c-0.559-0.278-0.959-0.734-1.201-1.363c-0.238-0.632-0.39-1.347-0.449-2.147
			c-0.042-0.839-0.07-1.785-0.091-2.836c-0.018-0.901-0.027-0.213-0.027-2.115v-2.001c0-1.901,0.01-1.213,0.027-2.114
			c0.021-1.052,0.049-1.997,0.091-2.837c0.06-0.8,0.211-1.516,0.449-2.146c0.242-0.631,0.643-1.086,1.201-1.366v-0.21
			c-0.087,0.008-0.828,0.112-1.769,0.192C110.617,8.106,109.926,8.149,109.272,8.148"/>
		<path fill="#FFFFFF" d="M120.524,8.148c-1.361-0.001-3.609-0.277-3.726-0.287v0.21c0.562,0.28,0.961,0.735,1.201,1.366
			c0.239,0.63,0.39,1.346,0.451,2.146c0.038,0.84,0.069,1.785,0.089,2.837c0.021,1.05,0.03,0.635,0.03,3.116
			c0,2.479-0.009,2.063-0.03,3.114c-0.02,1.051-0.051,1.997-0.089,2.836c-0.062,0.801-0.212,1.516-0.451,2.147
			c-0.24,0.629-0.64,1.085-1.201,1.363v0.212c0.116-0.009,2.364-0.286,3.726-0.286c0.652-0.001,1.345,0.041,1.953,0.093
			c0.941,0.082,1.686,0.187,1.772,0.193v-0.212c-0.562-0.278-0.961-0.734-1.201-1.363c-0.241-0.632-0.391-1.347-0.45-2.147
			c-0.041-0.839-0.072-1.785-0.091-2.836c-0.017-0.901-0.025-0.213-0.03-2.115v-2.001c0.005-1.901,0.014-1.213,0.03-2.114
			c0.019-1.052,0.05-1.997,0.091-2.837c0.06-0.8,0.209-1.516,0.45-2.146c0.24-0.631,0.64-1.086,1.201-1.366v-0.21
			c-0.087,0.008-0.831,0.112-1.772,0.192C121.869,8.106,121.177,8.149,120.524,8.148"/>
		<path fill="#FFFFFF" d="M154.425,14.42c0.021-1.052,0.049-1.997,0.089-2.837c0.06-0.801,0.21-1.516,0.451-2.146
			c0.241-0.63,0.64-1.085,1.2-1.364V7.861c-0.087,0.007-0.828,0.112-1.769,0.192c-0.61,0.053-1.303,0.096-1.956,0.095
			c-1.361-0.001-3.607-0.278-3.725-0.287v0.211c0.561,0.279,0.96,0.734,1.201,1.364c0.239,0.631,0.39,1.346,0.449,2.146
			c0.039,0.84,0.07,1.785,0.09,2.837c0.02,1.05,0.031,0.634,0.031,3.116c0,2.479-0.012,2.063-0.031,3.114s-0.051,1.996-0.09,2.836
			c-0.06,0.801-0.21,1.516-0.449,2.147c-0.241,0.63-0.641,1.085-1.201,1.364v0.211c0.117-0.01,2.363-0.286,3.725-0.286
			c0.653-0.001,1.346,0.041,1.956,0.093c0.94,0.082,1.682,0.187,1.769,0.193v-0.211c-0.561-0.279-0.959-0.734-1.2-1.364
			c-0.241-0.632-0.392-1.347-0.451-2.147c-0.04-0.84-0.068-1.785-0.089-2.836c-0.018-0.901-0.026-0.213-0.028-2.115v-2.001
			C154.398,14.634,154.407,15.321,154.425,14.42"/>
		<path fill="#FFFFFF" d="M143.273,9.092c-1.377-0.893-3.071-1.392-5.216-1.392c-2.503,0-4.513,0.293-5.107,0.369
			c-0.562,0.044-1.176,0.079-1.764,0.078c-1.361,0-3.608-0.276-3.725-0.286v0.211c0.561,0.279,0.96,0.734,1.2,1.365
			c0.239,0.63,0.389,1.346,0.449,2.146c0.04,0.84,0.071,1.786,0.091,2.837c0.02,1.05,0.029,0.635,0.029,3.115
			s-0.01,2.064-0.029,3.115s-0.051,1.997-0.091,2.836c-0.061,0.801-0.21,1.516-0.449,2.147c-0.24,0.629-0.64,1.085-1.2,1.363v0.212
			c0.116-0.01,2.363-0.286,3.725-0.286c0.654-0.001,1.345,0.041,1.955,0.093c0.941,0.082,1.684,0.186,1.77,0.193v-0.212
			c-0.559-0.278-0.96-0.734-1.2-1.363c-0.24-0.632-0.391-1.347-0.451-2.147c-0.04-0.839-0.07-1.785-0.089-2.836
			c-0.019-0.901-0.026-0.213-0.029-2.115v-2.001c0.003-1.901,0.011-1.213,0.029-2.114c0.019-1.051,0.089-1.996,0.089-2.837
			c0-1.416,0.653-1.663,1.782-1.802c1.129-0.141,3.25-0.123,5.146,1.026v-0.002c2.304,1.467,2.332,3.803,2.332,4.635
			c0,1.1,0.063,2.809-2.117,4.699c-1.123,0.975-2.537,1.553-3.85,1.531c-0.657-0.01-1.232-0.225-1.35-0.241
			c-0.2-0.027-0.33,0.054-0.27,0.241c0.126,0.402,2.76,0.961,4.96,0.961c0.82,0,1.675-0.072,2.341-0.326
			c1.346-0.514,2.18-1.208,3.093-2.332c0,0,1.489-1.975,1.423-4.484c0-1.229-0.303-2.436-0.904-3.616
			C145.243,10.689,144.363,9.799,143.273,9.092"/>
		<path fill="#FFFFFF" d="M6.604,32.784c-0.094,0.036-0.2,0.049-0.301,0.034c-0.104-0.013-0.199-0.055-0.267-0.105
			c-0.162-0.12-0.353-0.597-0.353-0.597L5.49,32.411c-0.053,0.081-0.128,0.175-0.202,0.255c-0.074,0.081-0.155,0.156-0.239,0.218
			c-0.17,0.121-0.35,0.179-0.508,0.035l-0.14,0.119c0.078,0.117,0.221,0.219,0.381,0.231c0.157,0.016,0.304-0.022,0.432-0.075
			c0.129-0.053,0.248-0.12,0.357-0.196c0.013-0.009,0.025-0.018,0.039-0.026c0.051,0.054,0.104,0.103,0.163,0.137
			c0.161,0.097,0.333,0.136,0.503,0.139c0.17,0.001,0.342-0.034,0.494-0.117c0.149-0.076,0.286-0.22,0.355-0.353l-0.283-0.184
			C6.771,32.694,6.701,32.742,6.604,32.784"/>
		<path fill="#FFFFFF" d="M48.137,50.485c-0.471,0.315-1.025,0.535-1.577,0.727c-0.556,0.188-1.125,0.341-1.703,0.467
			c-0.674,0.146-1.354,0.257-2.041,0.34c0.065-0.079,0.128-0.157,0.199-0.228c0.199-0.189,0.411-0.364,0.652-0.512
			c0.239-0.146,0.498-0.273,0.775-0.388c0.136-0.063,0.278-0.115,0.427-0.165c0.144-0.059,0.295-0.104,0.448-0.166l-0.004-0.126
			c-0.636-0.01-1.294,0.084-1.902,0.371c-0.303,0.142-0.591,0.33-0.84,0.568c-0.212,0.212-0.395,0.435-0.541,0.725
			c-0.226,0.02-0.452,0.039-0.68,0.051c-0.278,0.016-0.561,0.024-0.841,0.029c0.101-0.105,0.188-0.224,0.24-0.356
			c0.071-0.179,0.095-0.366,0.092-0.546l-0.205-0.011c-0.038,0.318-0.193,0.592-0.446,0.73c-0.12,0.074-0.262,0.12-0.408,0.145
			c-0.142,0.025-0.435,0.027-0.435,0.027c-1.182-0.039-2.359-0.178-3.503-0.432c0.123-0.427,0.204-0.864,0.231-1.307
			c0.028-0.454,0.004-0.912-0.069-1.358c-0.009-0.056-0.02-0.11-0.033-0.166c0.147,0.075,0.294,0.146,0.445,0.208
			c0.265,0.11,0.534,0.198,0.81,0.265c0.033,0.163,0.076,0.313,0.126,0.465c0.067,0.188,0.147,0.371,0.236,0.547
			c0.183,0.352,0.407,0.68,0.662,0.979l0.266-0.225c-0.197-0.316-0.34-0.668-0.392-0.778c1.224,0.065,1.715,0.756,1.715,0.756
			l0.153-0.059c0,0,0.018-0.287-0.453-0.646c-0.649-0.494-1.206-0.451-1.559-0.482c-0.026-0.095-0.048-0.191-0.067-0.287
			c-0.009-0.047-0.016-0.099-0.022-0.149c0.491,0.055,0.994,0.036,1.492-0.064l-0.086-0.411c-0.422,0.045-0.895,0.006-1.329-0.089
			c-0.439-0.098-0.865-0.236-1.268-0.438c-0.525-0.262-1.109-0.73-1.109-0.73c-0.146-0.123-0.285-0.257-0.421-0.394
			c0.526,0.039,1.055,0.063,1.587,0.057l-0.01-0.404c-0.667-0.006-1.343-0.057-2.012-0.14c-0.027-0.032-0.058-0.062-0.084-0.094
			c-0.28-0.354-0.528-0.736-0.75-1.131c-0.226-0.396-0.428-0.806-0.607-1.229c-0.045-0.104-0.083-0.209-0.125-0.314
			c0.137,0.01,0.263,0.03,0.382,0.075c0.234,0.079,0.42,0.235,0.552,0.465c0.064,0.1,0.112,0.257,0.195,0.417
			c0.08,0.156,0.179,0.306,0.302,0.438c0.252,0.259,0.569,0.437,0.948,0.472l0.015-0.288c-0.267,0.007-0.555-0.157-0.737-0.378
			c-0.09-0.116-0.16-0.246-0.212-0.383c-0.057-0.134-0.081-0.287-0.152-0.451c-0.124-0.319-0.382-0.601-0.7-0.772
			c-0.275-0.152-0.586-0.222-0.847-0.295c-0.033-0.094-0.067-0.185-0.098-0.282c-0.143-0.452-0.308-0.922-0.492-1.373
			c-0.735-1.811-1.836-3.509-3.308-4.853c-0.732-0.672-1.554-1.254-2.443-1.707c-0.443-0.229-0.902-0.43-1.375-0.597
			c-0.241-0.084-0.477-0.161-0.723-0.227c-0.306-0.245-0.64-0.449-0.983-0.611c-0.291-0.14-0.59-0.247-0.895-0.326
			c-0.232-0.06-0.462-0.103-0.7-0.138c-0.052-0.426-0.097-0.853-0.129-1.28c0.025,0.017,0.054,0.034,0.08,0.052
			c0.149,0.11,0.277,0.248,0.307,0.373l0.353-0.041c-0.013-0.149-0.072-0.276-0.14-0.383c-0.069-0.106-0.149-0.196-0.232-0.278
			c-0.129-0.126-0.266-0.228-0.411-0.326c-0.049-0.831-0.062-1.662-0.039-2.491c0.046,0.006,0.093,0.009,0.14,0.017
			c0.139,0.02,0.28,0.052,0.419,0.093c0.17,0.054,0.33,0.128,0.485,0.213c-0.052,0.118-0.084,0.234-0.111,0.354
			c-0.037,0.206-0.036,0.407-0.017,0.604c0.043,0.389,0.166,0.751,0.319,1.089l0.23-0.088c-0.106-0.337-0.173-0.686-0.165-1.021
			c0.003-0.166,0.025-0.328,0.073-0.477c0.02-0.063,0.047-0.131,0.08-0.189c0.423,0.331,0.742,0.805,0.943,1.356
			c0.052,0.133,0.102,0.333,0.17,0.519c0.042,0.12,0.093,0.235,0.144,0.352c-0.04,0.08-0.071,0.157-0.096,0.241
			c-0.042,0.142-0.062,0.283-0.066,0.425c-0.012,0.282,0.032,0.558,0.105,0.817l0.16-0.037c-0.041-0.254-0.05-0.513-0.011-0.756
			c0.017-0.111,0.047-0.218,0.087-0.318c0.15,0.29,0.325,0.566,0.529,0.818c0.246,0.306,0.539,0.573,0.867,0.78
			c0.326,0.212,0.669,0.377,1.072,0.448l0.064-0.373c-0.292-0.068-0.609-0.236-0.868-0.438c-0.265-0.203-0.491-0.453-0.676-0.734
			c-0.186-0.28-0.33-0.588-0.438-0.911c-0.029-0.086-0.05-0.178-0.074-0.266c0.034,0.008,0.068,0.017,0.103,0.028
			c0.171,0.063,0.336,0.159,0.481,0.279c0.292,0.244,0.509,0.585,0.625,0.966l0.272-0.068c-0.082-0.437-0.259-0.881-0.582-1.237
			c-0.16-0.174-0.341-0.341-0.564-0.47c-0.144-0.081-0.305-0.151-0.492-0.192c-0.005-0.024-0.008-0.043-0.015-0.066
			c-0.17-0.754-0.551-1.484-1.125-2.034c-0.286-0.275-0.608-0.508-0.958-0.69c-0.33-0.17-0.723-0.32-1.111-0.404
			c-0.042-0.207,0.021-0.476,0.083-0.633c2.894-3.871,13.058-18.779,15.649-21.021c2.217-1.92,5.008-3.063,7.6-3.021
			c1.3,0.021,2.432,0.441,2.665,0.475c0.395,0.054,0.652-0.106,0.535-0.475c-0.253-0.796-5.453-1.896-9.795-1.896
			c-1.619,0-3.306,0.141-4.62,0.642c-2.657,1.016-4.207,2.198-6.105,4.604C26.385,7.89,17.434,20.909,14.913,23.593
			c-1.288,1.372-2.533,1.408-3.867,1.354c0.006-3.753,0.024-2.396,0.06-4.174c0.039-2.075,0.097-3.941,0.175-5.6
			c0.12-1.579,0.418-2.992,0.891-4.236c0.476-1.244,1.264-2.144,2.37-2.696V7.827c-0.282,0.021-4.07,0.567-7.353,0.565
			C4.501,8.39,0.064,7.845-0.165,7.827v0.414c1.106,0.553,1.895,1.452,2.37,2.696s0.771,2.657,0.89,4.236
			c0.078,1.658,0.14,3.524,0.177,5.6c0.041,2.074,0.06,1.252,0.06,6.149l0.028,1.115c0.002,0.307-0.078,0.576-0.234,0.918
			c-0.155,0.338-0.285,0.752-0.382,1.174c-0.102,0.423-0.134,0.846-0.136,1.258c-0.016,0.826,0.16,1.694,0.522,2.434
			c0.031,0.067,0.069,0.127,0.103,0.191c0.186,1.286,0.158,2.608-0.041,3.906c-0.105,0.692-0.257,1.378-0.453,2.054
			c-0.196,0.669-0.435,1.346-0.721,1.96l0.463,0.232c0.347-0.652,0.62-1.322,0.862-2.012c0.241-0.689,0.435-1.396,0.584-2.116
			c0.175-0.842,0.277-1.703,0.303-2.573c0.099,0.117,0.203,0.232,0.307,0.344c0.495,0.516,1.027,0.98,1.575,1.418
			c-0.456,0.555-0.887,1.132-1.249,1.773c-0.383,0.685-0.707,1.463-0.728,2.325c-0.003,0.117,0.001,0.232,0.011,0.349
			c-0.114,0.18-0.239,0.365-0.367,0.543c-0.144,0.211-0.291,0.42-0.445,0.625c-0.307,0.408-0.623,0.811-0.971,1.178
			c-0.339,0.38-0.711,0.724-1.111,1.027c-0.402,0.3-0.837,0.558-1.321,0.705L-0.024,46c0.554-0.031,1.098-0.219,1.585-0.479
			c0.491-0.262,0.932-0.6,1.348-0.959c0.403-0.371,0.785-0.765,1.126-1.189c0.147-0.18,0.287-0.364,0.421-0.553
			c0.134,0.292,0.293,0.563,0.455,0.817c0.107,0.168,0.212,0.331,0.313,0.492c-0.006,0.019,0,0.042-0.015,0.06
			c-0.014,0.048-0.028,0.093-0.046,0.139c-0.035,0.092-0.077,0.182-0.123,0.268c-0.091,0.175-0.213,0.327-0.351,0.467
			c-0.277,0.275-0.659,0.436-1.073,0.513l0.01,0.146c0.222,0.016,0.45-0.016,0.672-0.077c0.22-0.069,0.43-0.181,0.614-0.327
			c0.186-0.146,0.335-0.333,0.457-0.533c0.042-0.072,0.077-0.15,0.109-0.227c0.172,0.31,0.308,0.62,0.363,0.952l0.575-0.061
			c-0.06-0.853-0.519-1.561-0.858-2.194c-0.356-0.64-0.587-1.266-0.541-1.901c0.021-0.362,0.123-0.724,0.271-1.079
			c0.059,0.157,0.13,0.307,0.219,0.443c0.206,0.292,0.387,0.569,0.527,0.883c0.134,0.307,0.241,0.648,0.254,0.966l0.305,0.017
			c0.009-0.415-0.087-0.765-0.214-1.12c-0.128-0.347-0.315-0.686-0.504-0.979c-0.157-0.268-0.25-0.571-0.229-0.863
			c0.002-0.021,0.008-0.043,0.01-0.063c0.015-0.026,0.028-0.05,0.044-0.074c0.348-0.566,0.782-1.099,1.242-1.61
			c0.104,0.079,0.21,0.157,0.315,0.236c-0.145,0.229-0.221,0.479-0.273,0.713c-0.069,0.346-0.087,0.686-0.071,1.03l0.328,0.002
			c0.043-0.304,0.123-0.62,0.235-0.894c0.077-0.188,0.181-0.359,0.294-0.477c0.138,0.104,0.277,0.204,0.416,0.306
			c0.06,0.044,0.117,0.088,0.177,0.131c-0.001,0.035-0.004,0.068-0.004,0.104c0,0.199,0.009,0.411,0.021,0.612
			c-0.369,0.428-0.677,0.91-0.889,1.433c-0.228,0.548-0.353,1.133-0.392,1.712c-0.042,0.582,0.002,1.16,0.108,1.724
			c0.107,0.563,0.264,1.102,0.507,1.644l0.543-0.249c-0.174-0.47-0.297-0.999-0.362-1.509c-0.063-0.517-0.068-1.036-0.003-1.538
			c0.088-0.699,0.333-1.354,0.708-1.917c0.224,0.763,0.606,1.474,1.099,2.077c-0.061,0.132-0.106,0.263-0.141,0.389
			c-0.07,0.242-0.107,0.48-0.135,0.714c-0.048,0.469-0.053,0.925-0.023,1.388l0.486,0.001c0.013-0.151,0.034-0.307,0.055-0.459
			c0.021,0.023,0.035,0.051,0.057,0.074c0.183,0.217,0.413,0.392,0.656,0.533c0.241,0.146,0.517,0.234,0.793,0.286
			c0.279,0.043,0.575,0.028,0.835-0.06l-0.037-0.295c-0.241,0.014-0.47-0.013-0.697-0.075c-0.227-0.064-0.439-0.169-0.641-0.288
			c-0.353-0.214-0.639-0.527-0.836-0.886c0.006-0.031,0.011-0.063,0.02-0.093c0.051-0.203,0.115-0.399,0.193-0.577
			c0.001-0.003,0.002-0.005,0.004-0.008c0.523,0.504,1.11,0.927,1.727,1.285c0.825,0.476,1.696,0.847,2.615,1.101l0.076-0.268
			c-1.63-0.854-3.168-1.88-4.191-3.229c-0.505-0.676-0.833-1.445-0.944-2.247c-0.021-0.155-0.033-0.313-0.041-0.469
			c0.155,0.131,0.308,0.265,0.454,0.401c0.546,0.515,1.067,1.1,1.237,1.785l0.412-0.094c-0.174-0.854-0.73-1.512-1.274-2.086
			c-0.268-0.278-0.551-0.54-0.837-0.791V39.04c0.006-0.431,0.044-0.861,0.111-1.287c0.127-0.803,0.369-1.605,0.623-2.447
			c0.111,0.256,0.215,0.517,0.305,0.781c0.311,0.916,0.498,1.887,0.431,2.861l0.342,0.048c0.175-1.023,0.08-2.075-0.154-3.074
			c-0.117-0.502-0.271-0.994-0.453-1.477c-0.045-0.11-0.089-0.223-0.133-0.333c0.152-0.586,0.286-1.186,0.371-1.799
			c0.114-0.817,0.15-1.644,0.119-2.461c0.107-0.014,0.224-0.029,0.329-0.04c0.215-0.022,0.432-0.036,0.649-0.042
			c0.434-0.007,0.865,0.028,1.282,0.1c0.833,0.144,1.6,0.504,2.062,1.13c0.107,0.134,0.207,0.354,0.353,0.584
			c0.084,0.133,0.174,0.256,0.267,0.38c-0.202,0.216-0.409,0.429-0.625,0.63l0.156,0.222c0.246-0.179,0.48-0.368,0.709-0.561
			c0.328,0.371,0.708,0.685,1.105,0.955c0.414,0.282,0.854,0.511,1.307,0.693c0.035,0.015,0.069,0.027,0.104,0.041
			c-0.003,0.068-0.008,0.138-0.008,0.206c0.008,0.477,0.063,0.942,0.162,1.39l0.374-0.058c-0.063-0.451-0.068-0.906-0.005-1.346
			c0.251,0.082,0.506,0.152,0.771,0.203l0.077-0.37c-0.26-0.066-0.516-0.155-0.765-0.253c0.06-0.248,0.143-0.489,0.254-0.719
			c0.177-0.376,0.417-0.722,0.704-1.021c0.033-0.037,0.071-0.071,0.108-0.106c0.097,0.789,0.222,1.573,0.375,2.352
			c0.036,0.172,0.076,0.346,0.114,0.518l-0.021,0.014l-0.098,0.072c-0.063,0.051-0.126,0.104-0.184,0.16
			c-0.113,0.117-0.221,0.244-0.299,0.393c-0.08,0.146-0.137,0.311-0.156,0.478c-0.012,0.168,0.001,0.338,0.062,0.487l0.192-0.031
			c0.017-0.136,0.039-0.262,0.094-0.374c0.048-0.113,0.113-0.217,0.189-0.313c0.079-0.096,0.163-0.188,0.262-0.267
			c0.026-0.023,0.055-0.045,0.084-0.067c0.154,0.647,0.332,1.287,0.531,1.921c-0.132,0.18-0.249,0.378-0.318,0.6
			c-0.081,0.225-0.107,0.468-0.104,0.707c0,0.241,0.061,0.479,0.154,0.702c0.105,0.215,0.26,0.433,0.494,0.548l0.184-0.232
			c-0.139-0.103-0.229-0.279-0.278-0.459c-0.044-0.186-0.06-0.379-0.028-0.564c0.029-0.179,0.087-0.349,0.162-0.505
			c0.412,1.16,0.906,2.299,1.553,3.361c0.641,1.063,1.476,1.966,2.427,2.722c-0.087,0.37-0.079,0.76,0.027,1.105
			c0.065,0.222,0.161,0.427,0.275,0.617c0.118,0.189,0.245,0.359,0.407,0.523l0.304-0.276c-0.095-0.142-0.183-0.318-0.244-0.486
			c-0.063-0.172-0.104-0.347-0.118-0.516c-0.016-0.163-0.001-0.317,0.034-0.46c0.198,0.136,0.401,0.268,0.607,0.393
			c0.228,0.983,0.585,1.94,1.098,2.818c0.633,1.101,1.52,2.05,2.551,2.769c1.025,0.726,2.206,1.214,3.37,1.554
			c0.291,0.085,0.582,0.161,0.875,0.229c-0.053,0.138-0.104,0.277-0.168,0.413l0.434,0.243c0.1-0.178,0.188-0.36,0.273-0.546
			c1.921,0.382,3.888,0.445,5.821,0.285c1.206-0.103,2.404-0.296,3.579-0.588c0.586-0.147,1.168-0.321,1.738-0.533
			c0.569-0.217,1.134-0.455,1.656-0.827L48.137,50.485z M9.284,26.923c-0.104,0.144-0.202,0.277-0.302,0.385
			c-0.165,0.185-0.36,0.325-0.6,0.446c-0.133,0.064-0.273,0.12-0.419,0.173c-0.089-0.099-0.186-0.192-0.295-0.271
			c-0.19-0.146-0.413-0.247-0.641-0.318c-0.23-0.074-0.475-0.09-0.715-0.07c-0.239,0.031-0.492,0.112-0.673,0.299l0.164,0.247
			c0.149-0.08,0.335-0.104,0.522-0.103c0.188,0.005,0.373,0.049,0.551,0.104c0.19,0.065,0.368,0.163,0.526,0.284
			c-0.071,0.02-0.146,0.039-0.226,0.059c-0.147,0.035-0.314,0.077-0.466,0.131c-0.526,0.182-0.997,0.508-1.365,0.916
			c-0.008-0.014-0.017-0.028-0.027-0.042c-0.217-0.373-0.417-0.777-0.574-1.166c0.004-0.199-0.004-0.35-0.002-0.513L4.74,26.923
			H9.284z M8.462,37.569c-0.024,0.181-0.039,0.362-0.056,0.543c-0.319-0.26-0.639-0.519-0.953-0.78
			c0.104-0.107,0.209-0.215,0.32-0.323l0.412-0.405c0.143-0.142,0.275-0.291,0.414-0.438c0.072-0.079,0.139-0.163,0.209-0.244
			C8.668,36.46,8.542,37.007,8.462,37.569 M9.108,32.608c-0.263,0.01-0.469,0.063-0.687,0.143c-0.22,0.084-0.428,0.201-0.607,0.347
			c-0.366,0.294-0.615,0.694-0.762,1.104l0.411,0.17c0.163-0.337,0.396-0.626,0.689-0.813c0.144-0.096,0.303-0.165,0.468-0.208
			c0.064-0.019,0.133-0.03,0.203-0.041c-0.042,0.095-0.084,0.192-0.13,0.285c-0.161,0.311-0.315,0.622-0.494,0.922
			c-0.166,0.309-0.347,0.608-0.544,0.899c-0.206,0.297-0.42,0.552-0.685,0.831c-0.116,0.125-0.231,0.252-0.344,0.379
			c-0.511-0.453-0.997-0.921-1.429-1.424c-0.037-0.042-0.068-0.086-0.104-0.128c0.09,0.007,0.18,0.01,0.271,0
			c0.194-0.018,0.388-0.089,0.546-0.197c0.159-0.107,0.286-0.253,0.381-0.402l-0.166-0.121c-0.208,0.242-0.491,0.38-0.775,0.357
			c-0.143-0.007-0.286-0.047-0.42-0.105c-0.124-0.056-0.247-0.131-0.343-0.208c-0.166-0.248-0.309-0.506-0.431-0.767
			c-0.002-0.008-0.002-0.018-0.003-0.027l-0.01,0.001c-0.03-0.066-0.066-0.132-0.094-0.202c-0.132-0.317-0.223-0.643-0.276-0.972
			c-0.026-0.163-0.043-0.334-0.046-0.491c-0.002-0.071-0.003-0.149,0-0.254v-0.072l0.002-0.053l0.005-0.131
			c0.022-0.349,0.07-0.681,0.162-0.982c0.092-0.308,0.226-0.566,0.42-0.932c0.018-0.031,0.035-0.071,0.052-0.104
			c0.056,0.085,0.112,0.171,0.169,0.257c0.083,0.12,0.176,0.233,0.264,0.352c-0.181,0.36-0.309,0.744-0.37,1.15l0.342,0.053
			c0.065-0.289,0.171-0.578,0.31-0.848c0.143,0.171,0.29,0.339,0.45,0.497c0.377,0.367,0.811,0.703,1.319,0.931
			c0.504,0.227,1.103,0.318,1.658,0.203l-0.101-0.601c-0.435,0.054-0.865-0.044-1.25-0.252c-0.385-0.208-0.729-0.513-1.031-0.855
			c-0.188-0.212-0.354-0.44-0.513-0.678c0.349-0.372,0.789-0.644,1.273-0.778c0.135-0.035,0.262-0.062,0.408-0.084
			c0.146-0.022,0.305-0.052,0.457-0.081c0.303-0.064,0.61-0.14,0.917-0.263c0.302-0.117,0.608-0.297,0.858-0.53
			c0.059,0.347,0.107,0.694,0.147,1.044c-0.299,0.261-0.64,0.5-0.998,0.675c-0.391,0.186-0.832,0.301-1.225,0.179l-0.091,0.261
			c0.241,0.091,0.503,0.109,0.751,0.078c0.249-0.029,0.483-0.103,0.708-0.193c0.227-0.092,0.439-0.204,0.644-0.332
			c0.088-0.056,0.175-0.112,0.262-0.173C9.656,30.576,9.415,31.837,9.108,32.608 M13.638,28.845c-0.878-0.25-1.762-0.343-2.67-0.325
			c-0.077-0.542-0.187-1.075-0.331-1.597h9.393c-0.058,0.033-0.117,0.065-0.181,0.092c-0.319,0.147-0.673,0.236-1.033,0.29
			c-0.368,0.046-0.76,0.101-1.136,0.173c-0.553,0.107-1.106,0.258-1.63,0.485l0.024-0.024c-0.104-0.079-0.231-0.206-0.398-0.33
			c-0.161-0.127-0.377-0.24-0.6-0.282c-0.224-0.044-0.437-0.024-0.625,0.018c-0.184,0.04-0.375,0.126-0.498,0.172
			c-0.253,0.093-0.538,0.112-0.825,0.06c-0.283-0.048-0.578-0.176-0.809-0.34l-0.215,0.275c0.306,0.182,0.61,0.314,0.941,0.4
			c0.33,0.077,0.684,0.112,1.028,0.022c0.17-0.048,0.307-0.075,0.456-0.084c0.144-0.007,0.282,0.002,0.396,0.056
			c0.113,0.055,0.197,0.132,0.278,0.236c0.043,0.061,0.084,0.128,0.129,0.202c-0.346,0.216-0.661,0.479-0.934,0.781
			C14.15,29.014,13.896,28.92,13.638,28.845 M15.484,29.822c-0.147-0.132-0.299-0.255-0.46-0.361
			c-0.083-0.053-0.169-0.1-0.253-0.146c0.303-0.242,0.631-0.443,0.977-0.599c0.647-0.277,1.34-0.441,2.062-0.521
			c0.18-0.021,0.361-0.037,0.544-0.052c0.054-0.005,0.105-0.007,0.158-0.011c-0.062,0.216-0.142,0.433-0.236,0.649
			c-0.162,0.386-0.376,0.76-0.612,1.133c-0.09-0.05-0.174-0.103-0.271-0.144c-0.318-0.136-0.682-0.215-1.053-0.19
			C16.041,29.598,15.749,29.689,15.484,29.822 M16.538,31.412c-0.036-0.063-0.072-0.123-0.104-0.186
			c-0.101-0.189-0.178-0.417-0.323-0.656c-0.034-0.056-0.073-0.108-0.112-0.163c0.131-0.065,0.268-0.113,0.412-0.138
			c0.246-0.041,0.51-0.016,0.771,0.068c0.051,0.014,0.101,0.04,0.149,0.06c-0.245,0.349-0.508,0.687-0.794,1.012V31.412z
			 M20.057,30.651c-0.172,0.21-0.322,0.429-0.458,0.654c-0.288,0.438-0.479,0.922-0.629,1.396c-0.076,0.252-0.123,0.508-0.153,0.762
			c-0.389-0.196-0.767-0.429-1.103-0.697c-0.354-0.282-0.67-0.606-0.931-0.969c0.02-0.018,0.042-0.037,0.064-0.056
			c0.359-0.337,0.698-0.695,1.015-1.07c0.026,0.017,0.052,0.027,0.076,0.044c0.237,0.161,0.47,0.36,0.664,0.566l0.333-0.268
			c-0.207-0.269-0.429-0.495-0.684-0.71c-0.018-0.016-0.038-0.026-0.056-0.04c0.275-0.359,0.526-0.738,0.736-1.145
			c0.177-0.345,0.319-0.712,0.414-1.093c0.279-0.053,0.56-0.128,0.841-0.244c0.015-0.006,0.032-0.015,0.046-0.022
			c-0.015,0.867,0.008,1.733,0.073,2.595C20.217,30.453,20.138,30.555,20.057,30.651 M22.094,34.661
			c0.035,0.01,0.069,0.017,0.104,0.025c0.24,0.075,0.475,0.163,0.702,0.262c0.239,0.105,0.462,0.234,0.665,0.379v0.008
			c0.006,0,0.011,0.002,0.016,0.003c0.175,0.124,0.336,0.26,0.481,0.409c0.156,0.164,0.292,0.347,0.399,0.548
			c0.019,0.03,0.031,0.066,0.048,0.1c-0.06-0.014-0.115-0.034-0.174-0.047c-0.349-0.077-0.724-0.086-1.094-0.03
			c-0.263,0.039-0.518,0.128-0.751,0.252C22.335,35.938,22.204,35.301,22.094,34.661 M26.406,43.701
			c-0.472-0.379-0.911-0.797-1.309-1.248c-0.384-0.451-0.708-0.956-0.996-1.483c-0.147-0.276-0.287-0.557-0.416-0.841
			c0.146,0.044,0.295,0.078,0.444,0.094c0.314,0.02,0.6,0.046,0.885,0.11c-0.026,0.137-0.043,0.269-0.048,0.41
			c-0.002,0.197,0.024,0.402,0.095,0.595c0.067,0.193,0.189,0.372,0.338,0.505c0.15,0.133,0.326,0.222,0.5,0.279l0.108-0.252
			c-0.272-0.153-0.45-0.393-0.479-0.658c-0.017-0.133-0.007-0.271,0.024-0.411c0.021-0.089,0.054-0.182,0.09-0.268
			c0.143,0.063,0.276,0.134,0.393,0.22l0.275-0.304c-0.329-0.283-0.663-0.432-1.026-0.563c-0.352-0.125-0.743-0.2-1.087-0.24
			c-0.293-0.048-0.571-0.167-0.765-0.353c-0.074-0.07-0.133-0.152-0.187-0.239c-0.051-0.138-0.102-0.279-0.152-0.419v-0.003h-0.001
			c-0.118-0.345-0.231-0.691-0.333-1.042c-0.031-0.102-0.055-0.205-0.083-0.307c0.436-0.25,0.972-0.31,1.512-0.21
			c0.207,0.035,0.412,0.096,0.616,0.166c0.183,0.554,0.435,1.063,0.727,1.534c0.41,0.655,0.889,1.236,1.403,1.772
			c-0.095,0.644-0.116,1.234-0.109,1.85c0.009,0.579,0.062,1.155,0.149,1.729C26.784,43.987,26.59,43.85,26.406,43.701
			 M28.045,41.603c0.204,0.178,0.411,0.35,0.621,0.517h-0.007c0.046,0.403,0.143,0.739,0.274,1.088
			c0.134,0.34,0.308,0.668,0.527,0.964c0.43,0.596,1.063,1.036,1.74,1.244l0.146-0.384c-0.583-0.241-1.071-0.658-1.385-1.189
			c-0.16-0.264-0.282-0.552-0.366-0.851c-0.021-0.071-0.034-0.148-0.053-0.224c0.449,0.312,0.908,0.609,1.379,0.885l0.194-0.288
			c-0.924-0.707-1.791-1.517-2.597-2.352c-0.793-0.85-1.53-1.757-2.065-2.748c-0.049-0.093-0.095-0.188-0.139-0.281
			c0.388,0.247,0.765,0.521,1.128,0.812c0.492,0.396,0.969,0.825,1.404,1.276l0.233-0.205c-0.401-0.521-0.829-1.012-1.309-1.46
			c-0.472-0.457-0.986-0.873-1.55-1.235c-0.091-0.06-0.187-0.113-0.279-0.169c-0.037-0.29-0.14-0.701-0.273-0.975
			c0.129,0.06,0.258,0.118,0.383,0.184c0.795,0.419,1.547,0.927,2.225,1.521c1.357,1.192,2.406,2.729,3.127,4.417
			c0.183,0.423,0.342,0.844,0.493,1.294c0.153,0.448,0.333,0.924,0.534,1.367c0.291,0.659,0.646,1.297,1.075,1.889
			c-0.145-0.025-0.29-0.05-0.434-0.077c-1.208-0.245-2.396-0.594-3.525-1.072c-0.43-0.184-0.846-0.39-1.254-0.61
			C28.044,43.849,27.973,42.708,28.045,41.603 M29.213,47.346c-0.013-0.023-0.029-0.044-0.043-0.066
			c-0.273-0.493-0.494-1.019-0.665-1.56c0.272,0.126,0.548,0.246,0.825,0.357c0.677,0.268,1.368,0.486,2.07,0.671
			c0,0-0.123,0.438-0.529,0.635c-0.179,0.089-0.381,0.147-0.585,0.182c-0.203,0.032-0.413,0.036-0.604-0.001
			C29.503,47.526,29.352,47.465,29.213,47.346 M35.267,51.601c-0.291-0.076-0.58-0.16-0.865-0.251
			c-1.118-0.358-2.147-0.855-3.05-1.546c-0.641-0.486-1.194-1.067-1.659-1.712c0.219,0.047,0.439,0.058,0.657,0.041
			c0.262-0.02,0.516-0.073,0.768-0.167c0.142-0.06,0.284-0.117,0.425-0.214c0.096,0.086,0.194,0.16,0.301,0.233
			c0.212,0.143,0.447,0.251,0.694,0.317c0.495,0.137,1.016,0.06,1.446-0.134l-0.082-0.231c-0.42,0.109-0.852,0.089-1.212-0.08
			c-0.179-0.083-0.344-0.196-0.489-0.333c-0.138-0.13-0.279-0.303-0.353-0.443l-0.132-0.254c0.42,0.103,0.841,0.196,1.266,0.272
			c0.32,0.056,0.638,0.104,0.958,0.147c0.023,0.028,0.042,0.055,0.065,0.081c0.261,0.302,0.546,0.584,0.857,0.84
			c0.069,0.124,0.145,0.303,0.204,0.461c0.037,0.1,0.063,0.206,0.094,0.308c-0.048,0.084-0.1,0.164-0.157,0.24
			c-0.098,0.128-0.209,0.247-0.334,0.349c-0.019,0.016-0.041,0.028-0.06,0.042c-0.136-0.121-0.261-0.175-0.4-0.227
			c-0.139-0.047-0.279-0.076-0.421-0.09c-0.281-0.025-0.557,0.006-0.822,0.063l0.028,0.163c0.256-0.027,0.515-0.024,0.757,0.026
			c0.121,0.027,0.238,0.065,0.344,0.116c0.072,0.034,0.148,0.084,0.205,0.131c-0.16,0.072-0.333,0.119-0.512,0.134l0.011,0.278
			c0.381-0.001,0.768-0.131,1.081-0.352c0.149-0.104,0.285-0.229,0.405-0.362c0.061,0.309,0.102,0.621,0.105,0.937
			C35.4,50.791,35.355,51.199,35.267,51.601"/>
		<path fill="#FFFFFF" d="M61.164,39.202c-0.044-0.543-0.266-0.956-0.817-0.956c-0.442,0-0.729,0.294-0.729,0.699
			c0,1.199,2.134,1.215,2.134,2.922c0,0.846-0.486,1.354-1.362,1.354c-0.831,0-1.332-0.61-1.346-1.501h0.53
			c0.014,0.625,0.309,1.015,0.875,1.015c0.479,0,0.788-0.309,0.788-0.875c0-1.207-2.134-1.347-2.134-2.862
			c0-0.751,0.515-1.236,1.28-1.236c0.766,0,1.266,0.515,1.31,1.441H61.164z"/>
		<path fill="#FFFFFF" d="M62.974,37.834h1.251c0.854,0,1.413,0.574,1.413,1.457s-0.559,1.457-1.413,1.457h-0.677v2.399h-0.575
			V37.834z M63.548,40.263h0.604c0.574,0,0.912-0.31,0.912-0.972s-0.338-0.971-0.912-0.971h-0.604V40.263z"/>
		<path fill="#FFFFFF" d="M68.245,37.834l1.17,5.313h-0.574l-0.317-1.575h-1.354l-0.317,1.575H66.28l1.17-5.313H68.245z
			 M67.251,41.087h1.193l-0.589-2.855H67.84L67.251,41.087z"/>
		<polygon fill="#FFFFFF" points="73.457,37.834 74.826,41.748 74.84,41.748 74.84,37.834 75.414,37.834 75.414,43.147 
			74.796,43.147 73.147,38.526 73.133,38.526 73.133,43.147 72.559,43.147 72.559,37.834 		"/>
		<path fill="#FFFFFF" d="M78.182,43.221c-0.898,0-1.502-0.751-1.502-2.729c0-1.979,0.604-2.731,1.502-2.731
			s1.501,0.752,1.501,2.731C79.684,42.47,79.08,43.221,78.182,43.221 M78.182,38.246c-0.515,0-0.927,0.441-0.927,2.245
			c0,1.802,0.412,2.243,0.927,2.243s0.927-0.441,0.927-2.243C79.109,38.688,78.697,38.246,78.182,38.246"/>
		<path fill="#FFFFFF" d="M81.023,37.834h1.28c0.854,0,1.458,0.501,1.458,1.376c0,0.597-0.266,1.097-0.854,1.303l0.898,2.635h-0.604
			l-0.854-2.517l-0.751,0.028v2.488h-0.574V37.834z M81.598,40.16h0.5c0.824,0,1.089-0.324,1.089-0.92s-0.265-0.92-1.089-0.92h-0.5
			V40.16z"/>
		<path fill="#FFFFFF" d="M85.219,37.834h0.986c1.118,0,1.795,0.618,1.795,2.657c0,2.038-0.677,2.656-1.795,2.656h-0.986V37.834z
			 M85.793,42.661h0.309c0.84,0,1.325-0.354,1.325-2.17c0-1.818-0.485-2.171-1.325-2.171h-0.309V42.661z"/>
		<rect x="89.459" y="37.834" fill="#FFFFFF" width="0.573" height="5.313"/>
		<path fill="#FFFFFF" d="M94.566,43.56c-0.42-0.022-0.67-0.272-0.868-0.604c-0.222,0.184-0.486,0.266-0.781,0.266
			c-0.897,0-1.5-0.751-1.5-2.73s0.603-2.73,1.5-2.73c0.898,0,1.502,0.751,1.502,2.73c0,0.985-0.147,1.67-0.412,2.104
			c0.133,0.213,0.302,0.441,0.56,0.463V43.56z M93.035,41.646c0.258,0.074,0.456,0.235,0.618,0.435
			c0.125-0.338,0.191-0.846,0.191-1.589c0-1.803-0.412-2.245-0.928-2.245c-0.515,0-0.927,0.442-0.927,2.245s0.412,2.244,0.927,2.244
			c0.192,0,0.368-0.059,0.516-0.235c-0.11-0.155-0.235-0.28-0.397-0.383V41.646z"/>
		<path fill="#FFFFFF" d="M96.333,37.834v3.901c0,0.536,0.154,0.999,0.78,0.999c0.625,0,0.78-0.463,0.78-0.999v-3.901h0.573v3.914
			c0,0.854-0.397,1.473-1.354,1.473c-0.957,0-1.354-0.618-1.354-1.473v-3.914H96.333z"/>
		<polygon fill="#FFFFFF" points="102.383,37.834 102.383,38.32 100.528,38.32 100.528,40.13 101.897,40.13 101.897,40.615 
			100.528,40.615 100.528,42.662 102.471,42.662 102.471,43.147 99.954,43.147 99.954,37.834 		"/>
		<path fill="#FFFFFF" d="M108.948,40.602c-0.044,0.617-0.117,1.015-0.368,1.574c0.177,0.206,0.397,0.397,0.648,0.574l-0.31,0.397
			c-0.191-0.089-0.471-0.294-0.662-0.501c-0.272,0.331-0.685,0.574-1.126,0.574c-0.832,0-1.361-0.521-1.361-1.354
			c0-0.78,0.545-1.251,0.876-1.619c-0.141-0.294-0.376-0.928-0.376-1.361c0-0.759,0.412-1.127,0.928-1.127
			c0.589,0,0.985,0.428,0.985,0.928c0,0.736-0.456,1.156-0.934,1.611c0.264,0.538,0.573,1.023,0.948,1.465
			c0.147-0.383,0.199-0.787,0.236-1.191L108.948,40.602z M107.189,42.734c0.294,0,0.581-0.205,0.742-0.441
			c-0.419-0.492-0.801-1.088-1.073-1.61c-0.272,0.279-0.56,0.729-0.56,1.14C106.299,42.367,106.608,42.734,107.189,42.734
			 M107.058,39.857c0.36-0.404,0.596-0.743,0.596-1.214c0-0.265-0.191-0.485-0.383-0.485c-0.279,0-0.471,0.162-0.471,0.685
			C106.8,39.247,106.939,39.557,107.058,39.857"/>
		<polygon fill="#FFFFFF" points="113.218,37.834 113.218,40.13 114.777,40.13 114.777,37.834 115.352,37.834 115.352,43.147 
			114.777,43.147 114.777,40.615 113.218,40.615 113.218,43.147 112.644,43.147 112.644,37.834 		"/>
		<path fill="#FFFFFF" d="M119.268,37.834v0.486h-1.854v1.81h1.368v0.486h-1.368v2.045h1.942v0.486h-2.518v-5.313H119.268z
			 M117.98,37.555h-0.368l0.722-1.016h0.573L117.98,37.555z"/>
		<path fill="#FFFFFF" d="M120.622,37.834h1.414c0.794,0,1.251,0.529,1.251,1.31c0,0.53-0.236,1.009-0.81,1.178v0.015
			c0.64,0.17,0.926,0.678,0.926,1.34c0,0.985-0.543,1.472-1.706,1.472h-1.075V37.834z M121.197,40.116h0.323
			c0.824,0,1.192-0.252,1.192-0.973c0-0.604-0.266-0.823-0.941-0.823h-0.574V40.116z M121.197,42.661h0.574
			c0.69,0,1.059-0.301,1.059-0.985c0-0.699-0.309-1.074-1.059-1.074h-0.574V42.661z"/>
		<polygon fill="#FFFFFF" points="127.246,37.834 127.246,38.32 125.393,38.32 125.393,40.13 126.761,40.13 126.761,40.615 
			125.393,40.615 125.393,42.662 127.335,42.662 127.335,43.147 124.818,43.147 124.818,37.834 		"/>
		<path fill="#FFFFFF" d="M128.602,37.834h1.28c0.854,0,1.457,0.501,1.457,1.376c0,0.597-0.265,1.097-0.854,1.303l0.897,2.635
			h-0.604l-0.854-2.517l-0.751,0.028v2.488h-0.573V37.834z M129.175,40.16h0.501c0.824,0,1.089-0.324,1.089-0.92
			s-0.265-0.92-1.089-0.92h-0.501V40.16z"/>
		<path fill="#FFFFFF" d="M135.004,39.468c-0.044-0.691-0.249-1.222-0.831-1.222c-0.641,0-0.949,0.574-0.949,2.245
			c0,1.67,0.309,2.243,0.949,2.243c0.538,0,0.831-0.293,0.831-0.838v-0.751h-0.721v-0.486h1.295v2.488h-0.367l-0.074-0.397
			c-0.221,0.294-0.529,0.471-0.964,0.471c-0.934,0-1.523-0.721-1.523-2.729s0.59-2.73,1.523-2.73c0.979,0,1.332,0.854,1.405,1.707
			H135.004z"/>
		<polygon fill="#FFFFFF" points="139.421,37.834 139.421,38.32 137.565,38.32 137.565,40.13 138.936,40.13 138.936,40.615 
			137.565,40.615 137.565,42.662 139.509,42.662 139.509,43.147 136.992,43.147 136.992,37.834 		"/>
		<polygon fill="#FFFFFF" points="141.614,37.834 142.541,41.852 142.556,41.852 143.461,37.834 144.374,37.834 144.374,43.147 
			143.845,43.147 143.845,38.275 143.829,38.275 142.726,43.147 142.351,43.147 141.246,38.275 141.231,38.275 141.231,43.147 
			140.702,43.147 140.702,37.834 		"/>
		<polygon fill="#FFFFFF" points="148.217,37.834 148.217,38.32 146.361,38.32 146.361,40.13 147.731,40.13 147.731,40.615 
			146.361,40.615 146.361,42.662 148.305,42.662 148.305,43.147 145.788,43.147 145.788,37.834 		"/>
		<polygon fill="#FFFFFF" points="150.396,37.834 151.765,41.748 151.779,41.748 151.779,37.834 152.353,37.834 152.353,43.147 
			151.734,43.147 150.086,38.526 150.072,38.526 150.072,43.147 149.497,43.147 149.497,37.834 		"/>
		<polygon fill="#FFFFFF" points="156.085,37.834 156.085,38.32 154.995,38.32 154.995,43.147 154.422,43.147 154.422,38.32 
			153.332,38.32 153.332,37.834 		"/>
	</g>
</g>
</svg>
