<?xml version="1.0" encoding="UTF-8"?> <svg xmlns="http://www.w3.org/2000/svg" viewBox="0 0 5669.99 1094.89"><defs><style>.cls-1{fill:#fff;}</style></defs><title>P&amp;amp;P-Logo-REV</title><g id="Layer_2" data-name="Layer 2"><g id="Layer_1-2" data-name="Layer 1"><path class="cls-1" d="M306.71,656.24c-25.71,3.47-39.4,5.18-78.8-1.71v-30.8c111.35,5.14,174.77-78.85,173-186.79,0-96-80.56-197.06-214.21-181.61V961.24c0,77.14,6.89,101.1,90.83,101.1v32.55l-104.52-3.42H104.52L0,1094.89v-32.55c80.51,0,87.36-15.4,87.36-101.1V329c0-65.11-5.13-78.8-82.23-78.8V219.35L96,221.06l101.1-1.71C401,217.64,493.46,305,505.48,426.68,515.75,529.48,418.07,647.69,306.71,656.24Z"></path><path class="cls-1" d="M690.46,311.84v461c0,63.4,3.43,77.09,77.1,77.09v30.85l-95.91-3.42H606.53L514,880.73V849.88c73.67,0,80.51-17.11,80.51-75.38V318.74c0-49.72-10.26-68.54-80.51-68.54V219.35l92.55,1.71h65.12l97.61-1.71V250.2C709.33,250.2,690.46,262.18,690.46,311.84Z"></path><path class="cls-1" d="M1285,880.73l-133.6-3.42H938.9l-114.79,3.42V849.88c80.52,0,85.7-18.82,85.7-80.52V128.52c0-73.67-6.89-97.67-72-97.67V0l90.83,1.71h66.82L1094.85,0V30.85c-63.41,0-82.22,12-82.22,89.11V747.07c0,84,30.79,96,113.06,96,85.64,1.71,143.92-12,166.22-113.07l27.36,6.84Z"></path><path class="cls-1" d="M1783.59,880.73,1650,877.31H1437.48l-114.78,3.42V849.88c80.51,0,85.7-18.82,85.7-80.52V128.52c0-73.67-6.89-97.67-72-97.67V0l90.83,1.71H1494L1593.43,0V30.85c-63.4,0-82.23,12-82.23,89.11V747.07c0,84,30.8,96,113.08,96,85.64,1.71,143.92-12,166.22-113.07l27.36,6.84Z"></path><path class="cls-1" d="M2335.29,896.13c-54.82,0-104.54-29.09-104.54-87.36-281,198.77-399.2,25.71-388.93-75.38,8.55-107.95,133.65-212.46,385.51-212.46V394.12c0-97.68-18.82-135.37-87.35-135.37-104.52,0-169.64,66.83-169.64,133.66,0,20.53-54.85,36-68.54,36-42.82,0-27.43-61.69-5.13-92.53,47.95-63.41,161-121.63,274.14-123.34,99.39-1.71,159.33,49.67,159.33,149.05V731.67c0,61.65-1.72,116.5,49.74,106.23,15.35-1.71,41-12,63.36-30.85l18.86,24C2420.93,865.33,2385,896.13,2335.29,896.13ZM2229,567.17c-178.18,1.71-277.58,60-279.28,147.35-1.72,72,54.85,195.34,279.28,48Z"></path><path class="cls-1" d="M3091,882.44c-173.06,6.84-286.18-221-341-277.58-24,3.43-61.7,6.85-94.25,5.14V769.36c0,68.54,10.27,80.52,94.25,80.52v30.85l-113-3.42h-68.54l-85.75,3.42V849.88c70.31,0,77.15-10.27,77.15-75.38V334.13c0-75.38-20.53-83.93-77.15-83.93V219.35l99.44,1.71,89.07-3.42c191.93-8.6,299.87,48,303.29,190.16,3.41,102.81-73.73,149.11-126.81,174.77,94.25,113.13,178.23,253.62,291.26,267.31v30.85ZM2655.69,258.75v305c169.64,5.13,231.32-56.56,226.24-154.23C2876.75,294.73,2792.77,236.46,2655.69,258.75Z"></path><path class="cls-1" d="M3087.74,659.08c-62.09,45.07-94.34,8.51-93.07-20,1.27-29.33,33.63-54,92.29-52.75v-31c0-22.09,0-31-14.08-31-24.24.44-39.11,12.32-39.11,28.94,0,5.52-19.94,11.49-27.18,11-10.65-.44-6.84-14.91-1.26-23,11.82-15.3,45.06-30.6,72.63-31.48,32.77-.83,44.29,12.76,44.29,37.45v90.58c0,15.3,2.15,32.32,23,18.73l6.35,9.33C3113.75,694.37,3087.74,673.5,3087.74,659.08Zm-.78-57.83c-38.32.39-57,11.88-57,33.14,0,16.57,18.68,37.84,57,8.07Z"></path><path class="cls-1" d="M3334.9,546.79V676.92h-17c-11.54-13.59-85.56-88.87-106.76-116.94v71.87c0,28.94,2.53,32.31,19.15,32.31v11.49l-22.19-.83H3192l-22.11.83V664.16c16.62,0,19.16-4.69,19.16-34V551c0-23-3.42-28.06-23.85-28.06V511.49l21.31.44,23.76-.44c10.27,12.32,78.71,83.79,102.45,111.85V546c0-17.46-2.53-23-17.78-23V511.49l20.82.44h16.53l20.43-.44V523C3337.85,523,3334.9,528.5,3334.9,546.79Z"></path><path class="cls-1" d="M3450.18,675.65l-39.59-.83-37,.83V664.16c14.38,0,17.39-4.69,17.39-19.55V538.28c0-13.59-3.42-15.3-17.39-15.3V511.49l33.15.44,37.82-.44c44.2-.83,88.49,17,95.24,76.12C3545.81,642.9,3499.07,676.92,3450.18,675.65Zm-6.45-151.4c-9.28,0-14.47-.44-17.4.83V644.61c0,15.3,6,18.28,21.7,18.72,29.34.39,56.12-23.81,56.12-67.22C3503.76,551.92,3481.18,523.81,3443.73,524.25Z"></path><path class="cls-1" d="M3823,646c-25.71,3.47-39.4,5.18-78.8-1.71v-30.8c111.37,5.13,174.82-78.86,173.05-186.79,0-96-80.56-197.06-214.2-181.62V951c0,77.15,6.93,101.1,90.82,101.1v32.56l-104.52-3.42h-68.54l-104.52,3.42v-32.56c80.56,0,87.41-15.4,87.41-101.1V318.74c0-65.12-5.17-78.81-82.22-78.81V209.08l90.82,1.72,101.1-1.72c203.85-1.71,296.35,85.65,308.37,207.33C4032,519.22,3934.34,637.42,3823,646Z"></path><path class="cls-1" d="M4412.45,885.86c-191.93,0-346.12-155.9-346.12-347.82a345.16,345.16,0,0,1,346.12-346.11c193.59,0,347.77,154.23,347.77,346.11S4606,885.86,4412.45,885.86ZM4373,236.51C4244.48,253.62,4158.83,401,4181.12,568.88c20.54,167.92,142.17,289.6,272.39,272.44,128.57-17.1,214.22-166.21,191.93-334.13C4624.9,341,4503.28,219.35,4373,236.51Z"></path><path class="cls-1" d="M4803,851.59l-5.17-135.31h34.32c10.26,97.62,54.84,131.89,138.72,135.31,94.25,3.47,147.45-95.91,130.25-157.61-15.35-56.56-51.35-85.69-126.83-123.38-97.56-49.67-161-104.52-166.11-195.3-6.93-113.12,90.75-222.78,354.62-166.22l8.6,119.92h-34.31c-15.35-77.09-47.9-90.78-109.6-97.67-51.43-5.14-104.52,17.16-123.4,58.27-39.39,89.12,34.23,137.08,126.82,188.5,154.19,85.65,174.72,150.77,173.05,222.72C5198.83,817.32,5027.53,952.69,4803,851.59Z"></path><path class="cls-1" d="M5332.48,726.54V260.47H5234.8v-36c77.05,0,126.81-61.69,152.53-150.76h42.82V209.08h224.39v51.39H5430.15V683.72c0,107.94-1.77,202.14,227.8,101l12,34.32C5361.61,988.66,5332.48,796.79,5332.48,726.54Z"></path></g></g></svg> 