<svg xmlns="http://www.w3.org/2000/svg" width="21.981" height="16.592" viewBox="0 0 21.981 16.592">
  <g data-name="Group 127726" transform="translate(0.5 0.5)">
    <path data-name="Path 2870" d="M1255.382,26.017H1240a2.8,2.8,0,0,1-2.8-2.8V17.625a1.4,1.4,0,0,1,1.4-1.4h18.183a1.4,1.4,0,0,1,1.4,1.4V23.22A2.8,2.8,0,0,1,1255.382,26.017Z" transform="translate(-1237.199 -16.226)" fill="none" stroke="currentcolor" stroke-linecap="round" stroke-linejoin="round" stroke-width="1"/>
    <path data-name="Path 2871" d="M1282.585,94.024v-2.8H1267.2v2.8" transform="translate(-1264.401 -84.233)" fill="none" stroke="currentcolor" stroke-linecap="round" stroke-linejoin="round" stroke-width="1"/>
    <line data-name="Line 323" x2="1.674" transform="translate(9.687 4.066)" fill="none" stroke="currentcolor" stroke-linecap="round" stroke-linejoin="round" stroke-width="1"/>
    <line data-name="Line 324" y2="2.797" transform="translate(10.49 12.589)" fill="none" stroke="currentcolor" stroke-linecap="round" stroke-linejoin="round" stroke-width="1"/>
    <path data-name="Path 2872" d="M1262.5,151.226a2.8,2.8,0,0,1-2.8,2.8" transform="translate(-1257.601 -138.637)" fill="none" stroke="currentcolor" stroke-linecap="round" stroke-linejoin="round" stroke-width="1"/>
    <path data-name="Path 2873" d="M1409.7,151.226a2.8,2.8,0,0,0,2.8,2.8" transform="translate(-1393.614 -138.637)" fill="none" stroke="currentcolor" stroke-linecap="round" stroke-linejoin="round" stroke-width="1"/>
    <path data-name="Path 2874" d="M1312.9,151.226c0,1.546-.124,2.16-.7,2.8" transform="translate(-1305.205 -138.637)" fill="none" stroke="currentcolor" stroke-linecap="round" stroke-linejoin="round" stroke-width="1"/>
    <path data-name="Path 2875" d="M1379.7,151.226c0,1.546.123,2.16.7,2.8" transform="translate(-1366.411 -138.637)" fill="none" stroke="currentcolor" stroke-linecap="round" stroke-linejoin="round" stroke-width="1"/>
  </g>
</svg>
